<?xml version="1.0" encoding="UTF-8"?><svg xmlns="http://www.w3.org/2000/svg" xmlns:xlink="http://www.w3.org/1999/xlink" fill-opacity="1" color-rendering="auto" color-interpolation="auto" text-rendering="auto" stroke="black" stroke-linecap="square" width="368" stroke-miterlimit="10" shape-rendering="auto" stroke-opacity="1" fill="black" stroke-dasharray="none" font-weight="normal" stroke-width="1" height="486" font-family="'Dialog'" font-style="normal" stroke-linejoin="miter" font-size="12" stroke-dashoffset="0" image-rendering="auto">
  <!--Generated by ySVG-->
  <defs id="genericDefs"/>
  <g>
    <defs id="defs1">
      <clipPath clipPathUnits="userSpaceOnUse" id="clipPath1">
        <path d="M0 0 L368 0 L368 486 L0 486 L0 0 Z"/>
      </clipPath>
      <clipPath clipPathUnits="userSpaceOnUse" id="clipPath2">
        <path d="M-10 -13 L378 -13 L378 499.4131 L-10 499.4131 L-10 -13 Z"/>
      </clipPath>
    </defs>
    <g fill="white" transform="scale(0.9485,0.9485) translate(10,13)" stroke="white">
      <rect x="-10" y="-13" clip-path="url(#clipPath2)" width="388" height="513" stroke="none"/>
    </g>
    <g id="y.node.0">
      <g fill="rgb(222,239,234)" transform="matrix(0.9485,0,0,0.9485,9.4845,12.3299)" stroke="rgb(222,239,234)">
        <rect width="238" x="65" height="293" y="0" stroke="none"/>
      </g>
      <g id="bla">
        <g fill="rgb(64,64,64)" transform="matrix(0.9485,0,0,0.9485,9.4845,12.3299)" stroke="rgb(64,64,64)">
          <rect width="238" x="65" height="22.625" y="0" stroke="none"/>
        </g>
        <g fill="white" font-size="16" font-family="sans-serif" transform="matrix(0.9485,0,0,0.9485,9.4845,12.3299)" stroke="white">
          <text xml:space="preserve" x="249" y="16.8516" stroke="none">Block  </text>
        </g>
      </g>
      <g fill="white" transform="matrix(0.9485,0,0,0.9485,9.4845,12.3299)" stroke="white">
        <rect width="1" x="65" height="293" y="0" stroke="none"/>
        <rect width="236" x="66" height="1" y="0" stroke="none"/>
        <rect x="66" y="292" fill="rgb(155,167,163)" width="237" height="1" stroke="none"/>
        <rect x="302" y="0" fill="rgb(155,167,163)" width="1" height="292" stroke="none"/>
      </g>
    </g>
    <g id="y.node.1">
      <g fill="rgb(255,153,153)" transform="matrix(0.9485,0,0,0.9485,9.4845,12.3299)" stroke="rgb(255,153,153)">
        <rect width="83" x="90" height="30" y="248" stroke="none"/>
      </g>
      <g id="bla">
        <g font-family="sans-serif" transform="matrix(0.9485,0,0,0.9485,9.4845,12.3299)">
          <text xml:space="preserve" x="97" y="267.1543" stroke="none">Proj X true </text>
        </g>
      </g>
      <g stroke-miterlimit="1.45" transform="matrix(0.9485,0,0,0.9485,9.4845,12.3299)" stroke-linecap="butt">
        <rect fill="none" width="83" x="90" height="30" y="248"/>
      </g>
    </g>
    <g id="y.node.2">
      <g fill="rgb(255,153,153)" transform="matrix(0.9485,0,0,0.9485,9.4845,12.3299)" stroke="rgb(255,153,153)">
        <rect width="54" x="157" height="30" y="178" stroke="none"/>
      </g>
      <g id="bla">
        <g font-family="sans-serif" transform="matrix(0.9485,0,0,0.9485,9.4845,12.3299)">
          <text xml:space="preserve" x="164" y="197.1543" stroke="none">Cond  </text>
        </g>
      </g>
      <g stroke-miterlimit="1.45" transform="matrix(0.9485,0,0,0.9485,9.4845,12.3299)" stroke-linecap="butt">
        <rect fill="none" width="54" x="157" height="30" y="178"/>
      </g>
    </g>
    <g id="y.node.3">
      <g fill="white" transform="matrix(0.9485,0,0,0.9485,9.4845,12.3299)" stroke="white">
        <rect width="96" x="136" height="30" y="108" stroke="none"/>
      </g>
      <g id="bla">
        <g font-family="sans-serif" transform="matrix(0.9485,0,0,0.9485,9.4845,12.3299)">
          <text xml:space="preserve" x="143" y="127.1543" stroke="none">Cmp b equal </text>
        </g>
      </g>
      <g stroke-miterlimit="1.45" transform="matrix(0.9485,0,0,0.9485,9.4845,12.3299)" stroke-linecap="butt">
        <rect fill="none" width="96" x="136" height="30" y="108"/>
      </g>
    </g>
    <g id="y.node.4">
      <g fill="rgb(255,255,153)" transform="matrix(0.9485,0,0,0.9485,9.4845,12.3299)" stroke="rgb(255,255,153)">
        <rect width="94" x="80" height="30" y="38" stroke="none"/>
      </g>
      <g id="bla">
        <g font-family="sans-serif" transform="matrix(0.9485,0,0,0.9485,9.4845,12.3299)">
          <text xml:space="preserve" x="87" y="57.1543" stroke="none">Const 0x1 Is </text>
        </g>
      </g>
      <g stroke-miterlimit="1.45" transform="matrix(0.9485,0,0,0.9485,9.4845,12.3299)" stroke-linecap="butt">
        <rect fill="none" width="94" x="80" height="30" y="38"/>
      </g>
    </g>
    <g id="y.node.5">
      <g fill="rgb(255,255,153)" transform="matrix(0.9485,0,0,0.9485,9.4845,12.3299)" stroke="rgb(255,255,153)">
        <rect width="94" x="194" height="30" y="38" stroke="none"/>
      </g>
      <g id="bla">
        <g font-family="sans-serif" transform="matrix(0.9485,0,0,0.9485,9.4845,12.3299)">
          <text xml:space="preserve" x="201" y="57.1543" stroke="none">Const 0x0 Is </text>
        </g>
      </g>
      <g stroke-miterlimit="1.45" transform="matrix(0.9485,0,0,0.9485,9.4845,12.3299)" stroke-linecap="butt">
        <rect fill="none" width="94" x="194" height="30" y="38"/>
      </g>
    </g>
    <g id="y.node.6">
      <g fill="rgb(255,153,153)" transform="matrix(0.9485,0,0,0.9485,9.4845,12.3299)" stroke="rgb(255,153,153)">
        <rect width="87" x="193" height="30" y="248" stroke="none"/>
      </g>
      <g id="bla">
        <g font-family="sans-serif" transform="matrix(0.9485,0,0,0.9485,9.4845,12.3299)">
          <text xml:space="preserve" x="200" y="267.1543" stroke="none">Proj X false </text>
        </g>
      </g>
      <g stroke-miterlimit="1.45" transform="matrix(0.9485,0,0,0.9485,9.4845,12.3299)" stroke-linecap="butt">
        <rect fill="none" width="87" x="193" height="30" y="248"/>
      </g>
    </g>
    <g id="y.node.7">
      <g fill="rgb(222,239,234)" transform="matrix(0.9485,0,0,0.9485,9.4845,12.3299)" stroke="rgb(222,239,234)">
        <rect width="174" x="0" height="153" y="333" stroke="none"/>
      </g>
      <g id="bla">
        <g fill="rgb(64,64,64)" transform="matrix(0.9485,0,0,0.9485,9.4845,12.3299)" stroke="rgb(64,64,64)">
          <rect width="174" x="0" height="22.625" y="333" stroke="none"/>
        </g>
        <g fill="white" font-size="16" font-family="sans-serif" transform="matrix(0.9485,0,0,0.9485,9.4845,12.3299)" stroke="white">
          <text xml:space="preserve" x="120" y="349.8516" stroke="none">Block  </text>
        </g>
      </g>
      <g fill="white" transform="matrix(0.9485,0,0,0.9485,9.4845,12.3299)" stroke="white">
        <rect width="1" x="0" height="153" y="333" stroke="none"/>
        <rect width="172" x="1" height="1" y="333" stroke="none"/>
        <rect x="1" y="485" fill="rgb(155,167,163)" width="173" height="1" stroke="none"/>
        <rect x="173" y="333" fill="rgb(155,167,163)" width="1" height="152" stroke="none"/>
      </g>
    </g>
    <g id="y.node.8">
      <g fill="rgb(255,255,255)" fill-opacity="0" transform="matrix(0.9485,0,0,0.9485,9.4845,12.3299)" stroke-opacity="0" stroke="rgb(255,255,255)">
        <rect width="30" x="129" height="30" y="371" stroke="none"/>
      </g>
      <g id="bla"/>
      <g stroke-linecap="butt" transform="matrix(0.9485,0,0,0.9485,9.4845,12.3299)" fill-opacity="0" fill="rgb(255,255,255)" stroke="rgb(255,255,255)" stroke-opacity="0" stroke-miterlimit="1.45">
        <rect fill="none" width="30" x="129" height="30" y="371"/>
      </g>
    </g>
    <g id="y.node.9">
      <g fill="rgb(255,153,153)" transform="matrix(0.9485,0,0,0.9485,9.4845,12.3299)" stroke="rgb(255,153,153)">
        <rect width="64" x="71" height="30" y="441" stroke="none"/>
      </g>
      <g id="bla">
        <g font-family="sans-serif" transform="matrix(0.9485,0,0,0.9485,9.4845,12.3299)">
          <text xml:space="preserve" x="78" y="460.1543" stroke="none">Return  </text>
        </g>
      </g>
      <g stroke-miterlimit="1.45" transform="matrix(0.9485,0,0,0.9485,9.4845,12.3299)" stroke-linecap="butt">
        <rect fill="none" width="64" x="71" height="30" y="441"/>
      </g>
    </g>
    <g id="y.node.10">
      <g fill="rgb(255,255,153)" transform="matrix(0.9485,0,0,0.9485,9.4845,12.3299)" stroke="rgb(255,255,153)">
        <rect width="94" x="15" height="30" y="371" stroke="none"/>
      </g>
      <g id="bla">
        <g font-family="sans-serif" transform="matrix(0.9485,0,0,0.9485,9.4845,12.3299)">
          <text xml:space="preserve" x="22" y="390.1543" stroke="none">Const 0x4 Is </text>
        </g>
      </g>
      <g stroke-miterlimit="1.45" transform="matrix(0.9485,0,0,0.9485,9.4845,12.3299)" stroke-linecap="butt">
        <rect fill="none" width="94" x="15" height="30" y="371"/>
      </g>
    </g>
    <g id="y.node.11">
      <g fill="rgb(222,239,234)" transform="matrix(0.9485,0,0,0.9485,9.4845,12.3299)" stroke="rgb(222,239,234)">
        <rect width="174" x="194" height="153" y="333" stroke="none"/>
      </g>
      <g id="bla">
        <g fill="rgb(64,64,64)" transform="matrix(0.9485,0,0,0.9485,9.4845,12.3299)" stroke="rgb(64,64,64)">
          <rect width="174" x="194" height="22.625" y="333" stroke="none"/>
        </g>
        <g fill="white" font-size="16" font-family="sans-serif" transform="matrix(0.9485,0,0,0.9485,9.4845,12.3299)" stroke="white">
          <text xml:space="preserve" x="314" y="349.8516" stroke="none">Block  </text>
        </g>
      </g>
      <g fill="white" transform="matrix(0.9485,0,0,0.9485,9.4845,12.3299)" stroke="white">
        <rect width="1" x="194" height="153" y="333" stroke="none"/>
        <rect width="172" x="195" height="1" y="333" stroke="none"/>
        <rect x="195" y="485" fill="rgb(155,167,163)" width="173" height="1" stroke="none"/>
        <rect x="367" y="333" fill="rgb(155,167,163)" width="1" height="152" stroke="none"/>
      </g>
    </g>
    <g id="y.node.12">
      <g fill="rgb(255,255,255)" fill-opacity="0" transform="matrix(0.9485,0,0,0.9485,9.4845,12.3299)" stroke-opacity="0" stroke="rgb(255,255,255)">
        <rect width="30" x="209" height="30" y="371" stroke="none"/>
      </g>
      <g id="bla"/>
      <g stroke-linecap="butt" transform="matrix(0.9485,0,0,0.9485,9.4845,12.3299)" fill-opacity="0" fill="rgb(255,255,255)" stroke="rgb(255,255,255)" stroke-opacity="0" stroke-miterlimit="1.45">
        <rect fill="none" width="30" x="209" height="30" y="371"/>
      </g>
    </g>
    <g id="y.node.13">
      <g fill="rgb(255,153,153)" transform="matrix(0.9485,0,0,0.9485,9.4845,12.3299)" stroke="rgb(255,153,153)">
        <rect width="64" x="233" height="30" y="441" stroke="none"/>
      </g>
      <g id="bla">
        <g font-family="sans-serif" transform="matrix(0.9485,0,0,0.9485,9.4845,12.3299)">
          <text xml:space="preserve" x="240" y="460.1543" stroke="none">Return  </text>
        </g>
      </g>
      <g stroke-miterlimit="1.45" transform="matrix(0.9485,0,0,0.9485,9.4845,12.3299)" stroke-linecap="butt">
        <rect fill="none" width="64" x="233" height="30" y="441"/>
      </g>
    </g>
    <g id="y.node.14">
      <g fill="rgb(255,255,153)" transform="matrix(0.9485,0,0,0.9485,9.4845,12.3299)" stroke="rgb(255,255,153)">
        <rect width="94" x="259" height="30" y="371" stroke="none"/>
      </g>
      <g id="bla">
        <g font-family="sans-serif" transform="matrix(0.9485,0,0,0.9485,9.4845,12.3299)">
          <text xml:space="preserve" x="266" y="390.1543" stroke="none">Const 0x7 Is </text>
        </g>
      </g>
      <g stroke-miterlimit="1.45" transform="matrix(0.9485,0,0,0.9485,9.4845,12.3299)" stroke-linecap="butt">
        <rect fill="none" width="94" x="259" height="30" y="371"/>
      </g>
    </g>
    <g id="y.edge.0">
      <g fill="red" stroke-miterlimit="1.45" transform="matrix(0.9485,0,0,0.9485,9.4845,12.3299)" stroke-linecap="butt" stroke="red">
        <path fill="none" d="M131.5 247.9609 L131.5 228 L170.5 228 L170.5 216"/>
        <path d="M170.5 208 L165.5 220 L170.5 217 L175.5 220 Z" stroke="none"/>
      </g>
      <g>
        <g stroke-miterlimit="1.45" font-family="sans-serif" transform="matrix(0.9485,0,0,0.9485,9.4845,12.3299)" stroke-linecap="butt">
          <text xml:space="preserve" x="135.5" y="237.5918" stroke="none">0</text>
        </g>
      </g>
    </g>
    <g id="y.edge.1">
      <g stroke-miterlimit="1.45" transform="matrix(0.9485,0,0,0.9485,9.4845,12.3299)" stroke-linecap="butt">
        <path fill="none" d="M184 177.9609 L184 146"/>
        <path d="M184 138 L179 150 L184 147 L189 150 Z" stroke="none"/>
      </g>
      <g>
        <g stroke-miterlimit="1.45" font-family="sans-serif" transform="matrix(0.9485,0,0,0.9485,9.4845,12.3299)" stroke-linecap="butt">
          <text xml:space="preserve" x="188" y="163.0449" stroke="none">0</text>
        </g>
      </g>
    </g>
    <g id="y.edge.2">
      <g stroke-miterlimit="1.45" transform="matrix(0.9485,0,0,0.9485,9.4845,12.3299)" stroke-linecap="butt">
        <path fill="none" d="M160 107.9609 L160 88 L127 88 L127 76"/>
        <path d="M127 68 L122 80 L127 77 L132 80 Z" stroke="none"/>
      </g>
      <g>
        <g stroke-miterlimit="1.45" font-family="sans-serif" transform="matrix(0.9485,0,0,0.9485,9.4845,12.3299)" stroke-linecap="butt">
          <text xml:space="preserve" x="164" y="97.5918" stroke="none">0</text>
        </g>
      </g>
    </g>
    <g id="y.edge.3">
      <g stroke-miterlimit="1.45" transform="matrix(0.9485,0,0,0.9485,9.4845,12.3299)" stroke-linecap="butt">
        <path fill="none" d="M208 107.9609 L208 88 L241 88 L241 76"/>
        <path d="M241 68 L236 80 L241 77 L246 80 Z" stroke="none"/>
      </g>
      <g>
        <g stroke-miterlimit="1.45" font-family="sans-serif" transform="matrix(0.9485,0,0,0.9485,9.4845,12.3299)" stroke-linecap="butt">
          <text xml:space="preserve" x="212" y="97.5918" stroke="none">1</text>
        </g>
      </g>
    </g>
    <g id="y.edge.4">
      <g fill="red" stroke-miterlimit="1.45" transform="matrix(0.9485,0,0,0.9485,9.4845,12.3299)" stroke-linecap="butt" stroke="red">
        <path fill="none" d="M236.5 247.9609 L236.5 228 L197.5 228 L197.5 216"/>
        <path d="M197.5 208 L192.5 220 L197.5 217 L202.5 220 Z" stroke="none"/>
      </g>
      <g>
        <g stroke-miterlimit="1.45" font-family="sans-serif" transform="matrix(0.9485,0,0,0.9485,9.4845,12.3299)" stroke-linecap="butt">
          <text xml:space="preserve" x="240.5" y="237.5918" stroke="none">0</text>
        </g>
      </g>
    </g>
    <g id="y.edge.5">
      <g fill="rgb(100,100,255)" stroke-miterlimit="1.45" transform="matrix(0.9485,0,0,0.9485,9.4845,12.3299)" stroke-linecap="butt" stroke="rgb(100,100,255)">
        <path fill="none" d="M119 440.9609 L119 421 L144 421 L144 409"/>
        <path d="M144 401 L139 413 L144 410 L149 413 Z" stroke="none"/>
      </g>
      <g>
        <g stroke-miterlimit="1.45" font-family="sans-serif" transform="matrix(0.9485,0,0,0.9485,9.4845,12.3299)" stroke-linecap="butt">
          <text xml:space="preserve" x="123" y="430.5918" stroke="none">0</text>
        </g>
      </g>
    </g>
    <g id="y.edge.6">
      <g stroke-miterlimit="1.45" transform="matrix(0.9485,0,0,0.9485,9.4845,12.3299)" stroke-linecap="butt">
        <path fill="none" d="M87 440.9609 L87 421 L62 421 L62 409"/>
        <path d="M62 401 L57 413 L62 410 L67 413 Z" stroke="none"/>
      </g>
      <g>
        <g stroke-miterlimit="1.45" font-family="sans-serif" transform="matrix(0.9485,0,0,0.9485,9.4845,12.3299)" stroke-linecap="butt">
          <text xml:space="preserve" x="91" y="430.5918" stroke="none">1</text>
        </g>
      </g>
    </g>
    <g id="y.edge.7">
      <g fill="red" stroke-miterlimit="1.45" transform="matrix(0.9485,0,0,0.9485,9.4845,12.3299)" stroke-linecap="butt" stroke="red">
        <path fill="none" d="M87 332.9609 L87 313 L131.5 313 L131.5 286"/>
        <path d="M131.5 278 L126.5 290 L131.5 287 L136.5 290 Z" stroke="none"/>
      </g>
      <g>
        <g stroke-miterlimit="1.45" font-family="sans-serif" transform="matrix(0.9485,0,0,0.9485,9.4845,12.3299)" stroke-linecap="butt">
          <text xml:space="preserve" x="91" y="322.5918" stroke="none">0</text>
        </g>
      </g>
    </g>
    <g id="y.edge.8">
      <g fill="rgb(100,100,255)" stroke-miterlimit="1.45" transform="matrix(0.9485,0,0,0.9485,9.4845,12.3299)" stroke-linecap="butt" stroke="rgb(100,100,255)">
        <path fill="none" d="M249 440.9609 L249 421 L224 421 L224 409"/>
        <path d="M224 401 L219 413 L224 410 L229 413 Z" stroke="none"/>
      </g>
      <g>
        <g stroke-miterlimit="1.45" font-family="sans-serif" transform="matrix(0.9485,0,0,0.9485,9.4845,12.3299)" stroke-linecap="butt">
          <text xml:space="preserve" x="253" y="430.5918" stroke="none">0</text>
        </g>
      </g>
    </g>
    <g id="y.edge.9">
      <g stroke-miterlimit="1.45" transform="matrix(0.9485,0,0,0.9485,9.4845,12.3299)" stroke-linecap="butt">
        <path fill="none" d="M281 440.9609 L281 421 L306 421 L306 409"/>
        <path d="M306 401 L301 413 L306 410 L311 413 Z" stroke="none"/>
      </g>
      <g>
        <g stroke-miterlimit="1.45" font-family="sans-serif" transform="matrix(0.9485,0,0,0.9485,9.4845,12.3299)" stroke-linecap="butt">
          <text xml:space="preserve" x="285" y="430.5918" stroke="none">1</text>
        </g>
      </g>
    </g>
    <g id="y.edge.10">
      <g fill="red" stroke-miterlimit="1.45" transform="matrix(0.9485,0,0,0.9485,9.4845,12.3299)" stroke-linecap="butt" stroke="red">
        <path fill="none" d="M281 332.9609 L281 313 L236.5 313 L236.5 286"/>
        <path d="M236.5 278 L231.5 290 L236.5 287 L241.5 290 Z" stroke="none"/>
      </g>
      <g>
        <g stroke-miterlimit="1.45" font-family="sans-serif" transform="matrix(0.9485,0,0,0.9485,9.4845,12.3299)" stroke-linecap="butt">
          <text xml:space="preserve" x="285" y="322.5918" stroke="none">0</text>
        </g>
      </g>
    </g>
  </g>
</svg>
