<?xml version="1.0" encoding="UTF-8"?><svg xmlns="http://www.w3.org/2000/svg" xmlns:xlink="http://www.w3.org/1999/xlink" fill-opacity="1" color-rendering="auto" color-interpolation="auto" text-rendering="auto" stroke="black" stroke-linecap="square" width="110" stroke-miterlimit="10" shape-rendering="auto" stroke-opacity="1" fill="black" stroke-dasharray="none" font-weight="normal" stroke-width="1" height="183" font-family="'Dialog'" font-style="normal" stroke-linejoin="miter" font-size="12" stroke-dashoffset="0" image-rendering="auto">
  <!--Generated by ySVG-->
  <defs id="genericDefs"/>
  <g>
    <defs id="defs1">
      <clipPath clipPathUnits="userSpaceOnUse" id="clipPath1">
        <path d="M0 0 L110 0 L110 183 L0 183 L0 0 Z"/>
      </clipPath>
      <clipPath clipPathUnits="userSpaceOnUse" id="clipPath2">
        <path d="M-10 -16 L120 -16 L120 200.2727 L-10 200.2727 L-10 -16 Z"/>
      </clipPath>
    </defs>
    <g fill="white" transform="scale(0.8462,0.8462) translate(10,16)" stroke="white">
      <rect x="-10" y="-16" clip-path="url(#clipPath2)" width="130" height="217" stroke="none"/>
    </g>
    <g id="y.node.0">
      <g fill="rgb(222,239,234)" transform="matrix(0.8462,0,0,0.8462,8.4615,13.5385)" stroke="rgb(222,239,234)">
        <rect width="74" x="18" height="83" y="0" stroke="none"/>
      </g>
      <g id="bla">
        <g fill="rgb(64,64,64)" transform="matrix(0.8462,0,0,0.8462,8.4615,13.5385)" stroke="rgb(64,64,64)">
          <rect width="74" x="18" height="22.625" y="0" stroke="none"/>
        </g>
        <g fill="white" font-size="16" font-family="sans-serif" transform="matrix(0.8462,0,0,0.8462,8.4615,13.5385)" stroke="white">
          <text xml:space="preserve" x="38" y="16.8516" stroke="none">Block  </text>
        </g>
      </g>
      <g fill="white" transform="matrix(0.8462,0,0,0.8462,8.4615,13.5385)" stroke="white">
        <rect width="1" x="18" height="83" y="0" stroke="none"/>
        <rect width="72" x="19" height="1" y="0" stroke="none"/>
        <rect x="19" y="82" fill="rgb(155,167,163)" width="73" height="1" stroke="none"/>
        <rect x="91" y="0" fill="rgb(155,167,163)" width="1" height="82" stroke="none"/>
      </g>
    </g>
    <g id="y.node.1">
      <g fill="rgb(255,153,153)" transform="matrix(0.8462,0,0,0.8462,8.4615,13.5385)" stroke="rgb(255,153,153)">
        <rect width="44" x="33" height="30" y="38" stroke="none"/>
      </g>
      <g id="bla">
        <g font-family="sans-serif" transform="matrix(0.8462,0,0,0.8462,8.4615,13.5385)">
          <text xml:space="preserve" x="40" y="57.1543" stroke="none">Jmp  </text>
        </g>
      </g>
      <g stroke-miterlimit="1.45" transform="matrix(0.8462,0,0,0.8462,8.4615,13.5385)" stroke-linecap="butt">
        <rect fill="none" width="44" x="33" height="30" y="38"/>
      </g>
    </g>
    <g id="y.node.2">
      <g fill="rgb(222,239,234)" transform="matrix(0.8462,0,0,0.8462,8.4615,13.5385)" stroke="rgb(222,239,234)">
        <rect width="110" x="0" height="60" y="123" stroke="none"/>
      </g>
      <g id="bla">
        <g fill="rgb(64,64,64)" transform="matrix(0.8462,0,0,0.8462,8.4615,13.5385)" stroke="rgb(64,64,64)">
          <rect width="110" x="0" height="22.625" y="123" stroke="none"/>
        </g>
        <g fill="white" font-size="16" font-family="sans-serif" transform="matrix(0.8462,0,0,0.8462,8.4615,13.5385)" stroke="white">
          <text xml:space="preserve" x="56" y="139.8516" stroke="none">Block  </text>
        </g>
      </g>
      <g fill="white" transform="matrix(0.8462,0,0,0.8462,8.4615,13.5385)" stroke="white">
        <rect width="1" x="0" height="60" y="123" stroke="none"/>
        <rect width="108" x="1" height="1" y="123" stroke="none"/>
        <rect x="1" y="182" fill="rgb(155,167,163)" width="109" height="1" stroke="none"/>
        <rect x="109" y="123" fill="rgb(155,167,163)" width="1" height="59" stroke="none"/>
      </g>
    </g>
    <g id="y.edge.0">
      <g fill="red" stroke-miterlimit="1.45" transform="matrix(0.8462,0,0,0.8462,8.4615,13.5385)" stroke-linecap="butt" stroke="red">
        <path fill="none" d="M55 122.9731 L55 76"/>
        <path d="M55 68 L50 80 L55 77 L60 80 Z" stroke="none"/>
      </g>
      <g>
        <g stroke-miterlimit="1.45" font-family="sans-serif" transform="matrix(0.8462,0,0,0.8462,8.4615,13.5385)" stroke-linecap="butt">
          <text xml:space="preserve" x="59" y="108.0449" stroke="none">0</text>
        </g>
      </g>
    </g>
  </g>
</svg>
