<?xml version="1.0" encoding="UTF-8"?><svg xmlns="http://www.w3.org/2000/svg" xmlns:xlink="http://www.w3.org/1999/xlink" fill-opacity="1" color-rendering="auto" color-interpolation="auto" text-rendering="auto" stroke="black" stroke-linecap="square" width="181" stroke-miterlimit="10" shape-rendering="auto" stroke-opacity="1" fill="black" stroke-dasharray="none" font-weight="normal" stroke-width="1" height="310" font-family="'Dialog'" font-style="normal" stroke-linejoin="miter" font-size="12" stroke-dashoffset="0" image-rendering="auto">
  <!--Generated by ySVG-->
  <defs id="genericDefs"/>
  <g>
    <defs id="defs1">
      <clipPath clipPathUnits="userSpaceOnUse" id="clipPath1">
        <path d="M0 0 L181 0 L181 310 L0 310 L0 0 Z"/>
      </clipPath>
      <clipPath clipPathUnits="userSpaceOnUse" id="clipPath2">
        <path d="M-10 -17 L191 -17 L191 327.2542 L-10 327.2542 L-10 -17 Z"/>
      </clipPath>
    </defs>
    <g fill="white" transform="scale(0.9005,0.9005) translate(10,17)" stroke="white">
      <rect x="-10" y="-17" clip-path="url(#clipPath2)" width="201" height="345" stroke="none"/>
    </g>
    <g id="y.node.0">
      <g fill="rgb(255,255,255)" fill-opacity="0" transform="matrix(0.9005,0,0,0.9005,9.005,15.3085)" stroke-opacity="0" stroke="rgb(255,255,255)">
        <rect width="30" x="19.75" height="30" y="0" stroke="none"/>
      </g>
      <g id="bla"/>
      <g stroke-linecap="butt" transform="matrix(0.9005,0,0,0.9005,9.005,15.3085)" fill-opacity="0" fill="rgb(255,255,255)" stroke="rgb(255,255,255)" stroke-opacity="0" stroke-miterlimit="1.45">
        <rect fill="none" width="30" x="19.75" height="30" y="0"/>
      </g>
    </g>
    <g id="y.node.1">
      <g fill="white" transform="matrix(0.9005,0,0,0.9005,9.005,15.3085)" stroke="white">
        <rect width="56" x="58.75" height="30" y="280" stroke="none"/>
      </g>
      <g id="bla">
        <g font-family="sans-serif" transform="matrix(0.9005,0,0,0.9005,9.005,15.3085)">
          <text xml:space="preserve" x="65.75" y="299.1543" stroke="none">Sub Is </text>
        </g>
      </g>
      <g stroke-miterlimit="1.45" transform="matrix(0.9005,0,0,0.9005,9.005,15.3085)" stroke-linecap="butt">
        <rect fill="none" width="56" x="58.75" height="30" y="280"/>
      </g>
    </g>
    <g id="y.node.2">
      <g fill="white" transform="matrix(0.9005,0,0,0.9005,9.005,15.3085)" stroke="white">
        <rect width="53" x="13.5" height="30" y="210" stroke="none"/>
      </g>
      <g id="bla">
        <g font-family="sans-serif" transform="matrix(0.9005,0,0,0.9005,9.005,15.3085)">
          <text xml:space="preserve" x="20.5" y="229.1543" stroke="none">Mul Is </text>
        </g>
      </g>
      <g stroke-miterlimit="1.45" transform="matrix(0.9005,0,0,0.9005,9.005,15.3085)" stroke-linecap="butt">
        <rect fill="none" width="53" x="13.5" height="30" y="210"/>
      </g>
    </g>
    <g id="y.node.3">
      <g fill="white" transform="matrix(0.9005,0,0,0.9005,9.005,15.3085)" stroke="white">
        <rect width="80" x="0" height="30" y="140" stroke="none"/>
      </g>
      <g id="bla">
        <g font-family="sans-serif" transform="matrix(0.9005,0,0,0.9005,9.005,15.3085)">
          <text xml:space="preserve" x="7" y="159.1543" stroke="none">Proj Is res </text>
        </g>
      </g>
      <g stroke-miterlimit="1.45" transform="matrix(0.9005,0,0,0.9005,9.005,15.3085)" stroke-linecap="butt">
        <rect fill="none" width="80" x="0" height="30" y="140"/>
      </g>
    </g>
    <g id="y.node.4">
      <g fill="rgb(153,153,255)" transform="matrix(0.9005,0,0,0.9005,9.005,15.3085)" stroke="rgb(153,153,255)">
        <rect width="72" x="41.5" height="30" y="70" stroke="none"/>
      </g>
      <g id="bla">
        <g font-family="sans-serif" transform="matrix(0.9005,0,0,0.9005,9.005,15.3085)">
          <text xml:space="preserve" x="48.5" y="89.1543" stroke="none">Load[Is]  </text>
        </g>
      </g>
      <g stroke-miterlimit="1.45" transform="matrix(0.9005,0,0,0.9005,9.005,15.3085)" stroke-linecap="butt">
        <rect fill="none" width="72" x="41.5" height="30" y="70"/>
      </g>
    </g>
    <g id="y.node.5">
      <g fill="rgb(255,255,153)" transform="matrix(0.9005,0,0,0.9005,9.005,15.3085)" stroke="rgb(255,255,153)">
        <rect width="101" x="69.75" height="30" y="0" stroke="none"/>
      </g>
      <g id="bla">
        <g font-family="sans-serif" transform="matrix(0.9005,0,0,0.9005,9.005,15.3085)">
          <text xml:space="preserve" x="76.75" y="19.1543" stroke="none">Address &amp;x P </text>
        </g>
      </g>
      <g stroke-miterlimit="1.45" transform="matrix(0.9005,0,0,0.9005,9.005,15.3085)" stroke-linecap="butt">
        <rect fill="none" width="101" x="69.75" height="30" y="0"/>
      </g>
    </g>
    <g id="y.node.6">
      <g fill="rgb(255,255,153)" transform="matrix(0.9005,0,0,0.9005,9.005,15.3085)" stroke="rgb(255,255,153)">
        <rect width="94" x="86.5" height="30" y="210" stroke="none"/>
      </g>
      <g id="bla">
        <g font-family="sans-serif" transform="matrix(0.9005,0,0,0.9005,9.005,15.3085)">
          <text xml:space="preserve" x="93.5" y="229.1543" stroke="none">Const 0x2 Is </text>
        </g>
      </g>
      <g stroke-miterlimit="1.45" transform="matrix(0.9005,0,0,0.9005,9.005,15.3085)" stroke-linecap="butt">
        <rect fill="none" width="94" x="86.5" height="30" y="210"/>
      </g>
    </g>
    <g id="y.node.7">
      <g fill="rgb(255,255,255)" fill-opacity="0" transform="matrix(0.9005,0,0,0.9005,9.005,15.3085)" stroke-opacity="0" stroke="rgb(255,255,255)">
        <rect width="30" x="100" height="30" y="140" stroke="none"/>
      </g>
      <g id="bla"/>
      <g stroke-linecap="butt" transform="matrix(0.9005,0,0,0.9005,9.005,15.3085)" fill-opacity="0" fill="rgb(255,255,255)" stroke="rgb(255,255,255)" stroke-opacity="0" stroke-miterlimit="1.45">
        <rect fill="none" width="30" x="100" height="30" y="140"/>
      </g>
    </g>
    <g id="y.edge.0">
      <g stroke-miterlimit="1.45" transform="matrix(0.9005,0,0,0.9005,9.005,15.3085)" stroke-linecap="butt">
        <path fill="none" d="M72.75 279.9609 L72.75 260 L40 260 L40 248"/>
      </g>
      <g stroke-miterlimit="1.45" transform="matrix(0.9005,0,0,0.9005,9.005,15.3085)" stroke-linecap="butt">
        <path d="M40 240 L35 252 L40 249 L45 252 Z" stroke="none"/>
      </g>
      <g>
        <g stroke-miterlimit="1.45" font-family="sans-serif" transform="matrix(0.9005,0,0,0.9005,9.005,15.3085)" stroke-linecap="butt">
          <text xml:space="preserve" x="76.75" y="269.5918" stroke="none">0</text>
        </g>
      </g>
    </g>
    <g id="y.edge.1">
      <g stroke-miterlimit="1.45" transform="matrix(0.9005,0,0,0.9005,9.005,15.3085)" stroke-linecap="butt">
        <path fill="none" d="M100.75 279.9609 L100.75 260 L133.5 260 L133.5 248"/>
        <path d="M133.5 240 L128.5 252 L133.5 249 L138.5 252 Z" stroke="none"/>
      </g>
      <g>
        <g stroke-miterlimit="1.45" font-family="sans-serif" transform="matrix(0.9005,0,0,0.9005,9.005,15.3085)" stroke-linecap="butt">
          <text xml:space="preserve" x="104.75" y="269.5918" stroke="none">1</text>
        </g>
      </g>
    </g>
    <g id="y.edge.2">
      <g stroke-miterlimit="1.45" transform="matrix(0.9005,0,0,0.9005,9.005,15.3085)" stroke-linecap="butt">
        <path fill="none" d="M26.75 209.9609 L26.75 190 L20 190 L20 178"/>
        <path d="M20 170 L15 182 L20 179 L25 182 Z" stroke="none"/>
      </g>
      <g>
        <g stroke-miterlimit="1.45" font-family="sans-serif" transform="matrix(0.9005,0,0,0.9005,9.005,15.3085)" stroke-linecap="butt">
          <text xml:space="preserve" x="30.75" y="199.5918" stroke="none">0</text>
        </g>
      </g>
    </g>
    <g id="y.edge.3">
      <g stroke-miterlimit="1.45" transform="matrix(0.9005,0,0,0.9005,9.005,15.3085)" stroke-linecap="butt">
        <path fill="none" d="M53.25 209.9609 L53.25 190 L60 190 L60 178"/>
        <path d="M60 170 L55 182 L60 179 L65 182 Z" stroke="none"/>
      </g>
      <g>
        <g stroke-miterlimit="1.45" font-family="sans-serif" transform="matrix(0.9005,0,0,0.9005,9.005,15.3085)" stroke-linecap="butt">
          <text xml:space="preserve" x="57.25" y="199.5918" stroke="none">1</text>
        </g>
      </g>
    </g>
    <g id="y.edge.4">
      <g stroke-miterlimit="1.45" transform="matrix(0.9005,0,0,0.9005,9.005,15.3085)" stroke-linecap="butt">
        <path fill="none" d="M40 139.9609 L40 120 L59.5 120 L59.5 108"/>
        <path d="M59.5 100 L54.5 112 L59.5 109 L64.5 112 Z" stroke="none"/>
      </g>
      <g>
        <g stroke-miterlimit="1.45" font-family="sans-serif" transform="matrix(0.9005,0,0,0.9005,9.005,15.3085)" stroke-linecap="butt">
          <text xml:space="preserve" x="44" y="129.5918" stroke="none">0</text>
        </g>
      </g>
    </g>
    <g id="y.edge.5">
      <g fill="rgb(100,100,255)" stroke-miterlimit="1.45" transform="matrix(0.9005,0,0,0.9005,9.005,15.3085)" stroke-linecap="butt" stroke="rgb(100,100,255)">
        <path fill="none" d="M59.5 69.9609 L59.5 50 L34.75 50 L34.75 38"/>
        <path d="M34.75 30 L29.75 42 L34.75 39 L39.75 42 Z" stroke="none"/>
      </g>
      <g>
        <g stroke-miterlimit="1.45" font-family="sans-serif" transform="matrix(0.9005,0,0,0.9005,9.005,15.3085)" stroke-linecap="butt">
          <text xml:space="preserve" x="63.5" y="59.5918" stroke="none">0</text>
        </g>
      </g>
    </g>
    <g id="y.edge.6">
      <g stroke-miterlimit="1.45" transform="matrix(0.9005,0,0,0.9005,9.005,15.3085)" stroke-linecap="butt">
        <path fill="none" d="M95.5 69.9609 L95.5 50 L120.25 50 L120.25 38"/>
        <path d="M120.25 30 L115.25 42 L120.25 39 L125.25 42 Z" stroke="none"/>
      </g>
      <g>
        <g stroke-miterlimit="1.45" font-family="sans-serif" transform="matrix(0.9005,0,0,0.9005,9.005,15.3085)" stroke-linecap="butt">
          <text xml:space="preserve" x="99.5" y="59.5918" stroke="none">1</text>
        </g>
      </g>
    </g>
    <g id="y.edge.7">
      <g fill="rgb(100,100,255)" stroke-miterlimit="1.45" transform="matrix(0.9005,0,0,0.9005,9.005,15.3085)" stroke-linecap="butt" stroke="rgb(100,100,255)">
        <path fill="none" d="M115 139.9609 L115 120 L95.5 120 L95.5 108"/>
        <path d="M95.5 100 L90.5 112 L95.5 109 L100.5 112 Z" stroke="none"/>
      </g>
      <g>
        <g stroke-miterlimit="1.45" font-family="sans-serif" transform="matrix(0.9005,0,0,0.9005,9.005,15.3085)" stroke-linecap="butt">
          <text xml:space="preserve" x="119" y="129.5918" stroke="none">0</text>
        </g>
      </g>
    </g>
  </g>
</svg>
