<?xml version="1.0" encoding="UTF-8"?><svg xmlns="http://www.w3.org/2000/svg" xmlns:xlink="http://www.w3.org/1999/xlink" fill-opacity="1" color-rendering="auto" color-interpolation="auto" text-rendering="auto" stroke="black" stroke-linecap="square" width="275" stroke-miterlimit="10" shape-rendering="auto" stroke-opacity="1" fill="black" stroke-dasharray="none" font-weight="normal" stroke-width="1" height="656" font-family="'Dialog'" font-style="normal" stroke-linejoin="miter" font-size="12" stroke-dashoffset="0" image-rendering="auto">
  <!--Generated by ySVG-->
  <defs id="genericDefs"/>
  <g>
    <defs id="defs1">
      <clipPath clipPathUnits="userSpaceOnUse" id="clipPath1">
        <path d="M0 0 L275 0 L275 656 L0 656 L0 0 Z"/>
      </clipPath>
      <clipPath clipPathUnits="userSpaceOnUse" id="clipPath2">
        <path d="M-10 -23 L285 -23 L285 680.7091 L-10 680.7091 L-10 -23 Z"/>
      </clipPath>
    </defs>
    <g fill="white" transform="scale(0.9322,0.9322) translate(10,23)" stroke="white">
      <rect x="-10" y="-23" clip-path="url(#clipPath2)" width="295" height="704" stroke="none"/>
    </g>
    <g id="y.node.0">
      <g fill="rgb(222,239,234)" transform="matrix(0.9322,0,0,0.9322,9.322,21.4407)" stroke="rgb(222,239,234)">
        <rect width="188" x="45.6875" height="83" y="0" stroke="none"/>
      </g>
      <g id="bla">
        <g fill="rgb(64,64,64)" transform="matrix(0.9322,0,0,0.9322,9.322,21.4407)" stroke="rgb(64,64,64)">
          <rect width="188" x="45.6875" height="22.625" y="0" stroke="none"/>
        </g>
        <g fill="white" font-size="16" font-family="sans-serif" transform="matrix(0.9322,0,0,0.9322,9.322,21.4407)" stroke="white">
          <text xml:space="preserve" x="179.6875" y="16.8516" stroke="none">Block  </text>
        </g>
      </g>
      <g fill="white" transform="matrix(0.9322,0,0,0.9322,9.322,21.4407)" stroke="white">
        <rect width="1" x="45.6875" height="83" y="0" stroke="none"/>
        <rect width="186" x="46.6875" height="1" y="0" stroke="none"/>
        <rect x="46.6875" y="82" fill="rgb(155,167,163)" width="187" height="1" stroke="none"/>
        <rect x="232.6875" y="0" fill="rgb(155,167,163)" width="1" height="82" stroke="none"/>
      </g>
    </g>
    <g id="y.node.1">
      <g fill="rgb(255,153,153)" transform="matrix(0.9322,0,0,0.9322,9.322,21.4407)" stroke="rgb(255,153,153)">
        <rect width="44" x="174.6875" height="30" y="38" stroke="none"/>
      </g>
      <g id="bla">
        <g font-family="sans-serif" transform="matrix(0.9322,0,0,0.9322,9.322,21.4407)">
          <text xml:space="preserve" x="181.6875" y="57.1543" stroke="none">Jmp  </text>
        </g>
      </g>
      <g stroke-miterlimit="1.45" transform="matrix(0.9322,0,0,0.9322,9.322,21.4407)" stroke-linecap="butt">
        <rect fill="none" width="44" x="174.6875" height="30" y="38"/>
      </g>
    </g>
    <g id="y.node.2">
      <g fill="rgb(255,255,153)" transform="matrix(0.9322,0,0,0.9322,9.322,21.4407)" stroke="rgb(255,255,153)">
        <rect width="94" x="60.6875" height="30" y="38" stroke="none"/>
      </g>
      <g id="bla">
        <g font-family="sans-serif" transform="matrix(0.9322,0,0,0.9322,9.322,21.4407)">
          <text xml:space="preserve" x="67.6875" y="57.1543" stroke="none">Const 0x0 Is </text>
        </g>
      </g>
      <g stroke-miterlimit="1.45" transform="matrix(0.9322,0,0,0.9322,9.322,21.4407)" stroke-linecap="butt">
        <rect fill="none" width="94" x="60.6875" height="30" y="38"/>
      </g>
    </g>
    <g id="y.node.3">
      <g fill="rgb(222,239,234)" transform="matrix(0.9322,0,0,0.9322,9.322,21.4407)" stroke="rgb(222,239,234)">
        <rect width="264.75" x="10" height="413" y="143" stroke="none"/>
      </g>
      <g id="bla">
        <g fill="rgb(64,64,64)" transform="matrix(0.9322,0,0,0.9322,9.322,21.4407)" stroke="rgb(64,64,64)">
          <rect width="264.75" x="10" height="22.625" y="143" stroke="none"/>
        </g>
        <g fill="white" font-size="16" font-family="sans-serif" transform="matrix(0.9322,0,0,0.9322,9.322,21.4407)" stroke="white">
          <text xml:space="preserve" x="220.75" y="159.8516" stroke="none">Block  </text>
        </g>
      </g>
      <g fill="white" transform="matrix(0.9322,0,0,0.9322,9.322,21.4407)" stroke="white">
        <rect width="1" x="10" height="413" y="143" stroke="none"/>
        <rect width="262.75" x="11" height="1" y="143" stroke="none"/>
        <rect x="11" y="555" fill="rgb(155,167,163)" width="263.75" height="1" stroke="none"/>
        <rect x="273.75" y="143" fill="rgb(155,167,163)" width="1" height="412" stroke="none"/>
      </g>
    </g>
    <g id="y.node.4">
      <g fill="rgb(255,153,153)" transform="matrix(0.9322,0,0,0.9322,9.322,21.4407)" stroke="rgb(255,153,153)">
        <rect width="83" x="69.75" height="30" y="511" stroke="none"/>
      </g>
      <g id="bla">
        <g font-family="sans-serif" transform="matrix(0.9322,0,0,0.9322,9.322,21.4407)">
          <text xml:space="preserve" x="76.75" y="530.1543" stroke="none">Proj X true </text>
        </g>
      </g>
      <g stroke-miterlimit="1.45" transform="matrix(0.9322,0,0,0.9322,9.322,21.4407)" stroke-linecap="butt">
        <rect fill="none" width="83" x="69.75" height="30" y="511"/>
      </g>
    </g>
    <g id="y.node.5">
      <g fill="rgb(255,153,153)" transform="matrix(0.9322,0,0,0.9322,9.322,21.4407)" stroke="rgb(255,153,153)">
        <rect width="54" x="136.75" height="30" y="441" stroke="none"/>
      </g>
      <g id="bla">
        <g font-family="sans-serif" transform="matrix(0.9322,0,0,0.9322,9.322,21.4407)">
          <text xml:space="preserve" x="143.75" y="460.1543" stroke="none">Cond  </text>
        </g>
      </g>
      <g stroke-miterlimit="1.45" transform="matrix(0.9322,0,0,0.9322,9.322,21.4407)" stroke-linecap="butt">
        <rect fill="none" width="54" x="136.75" height="30" y="441"/>
      </g>
    </g>
    <g id="y.node.6">
      <g fill="white" transform="matrix(0.9322,0,0,0.9322,9.322,21.4407)" stroke="white">
        <rect width="86" x="120.75" height="30" y="371" stroke="none"/>
      </g>
      <g id="bla">
        <g font-family="sans-serif" transform="matrix(0.9322,0,0,0.9322,9.322,21.4407)">
          <text xml:space="preserve" x="127.75" y="390.1543" stroke="none">Cmp b less </text>
        </g>
      </g>
      <g stroke-miterlimit="1.45" transform="matrix(0.9322,0,0,0.9322,9.322,21.4407)" stroke-linecap="butt">
        <rect fill="none" width="86" x="120.75" height="30" y="371"/>
      </g>
    </g>
    <g id="y.node.7">
      <g fill="white" transform="matrix(0.9322,0,0,0.9322,9.322,21.4407)" stroke="white">
        <rect width="56" x="79.25" height="30" y="281" stroke="none"/>
      </g>
      <g id="bla">
        <g font-family="sans-serif" transform="matrix(0.9322,0,0,0.9322,9.322,21.4407)">
          <text xml:space="preserve" x="86.25" y="300.1543" stroke="none">Add Is </text>
        </g>
      </g>
      <g stroke-miterlimit="1.45" transform="matrix(0.9322,0,0,0.9322,9.322,21.4407)" stroke-linecap="butt">
        <rect fill="none" width="56" x="79.25" height="30" y="281"/>
      </g>
    </g>
    <g id="y.node.8">
      <g fill="rgb(153,255,153)" transform="matrix(0.9322,0,0,0.9322,9.322,21.4407)" stroke="rgb(153,255,153)">
        <rect width="51" x="35.5" height="30" y="211" stroke="none"/>
      </g>
      <g id="bla">
        <g font-family="sans-serif" transform="matrix(0.9322,0,0,0.9322,9.322,21.4407)">
          <text xml:space="preserve" x="42.5" y="230.1543" stroke="none">Phi Is </text>
        </g>
      </g>
      <g stroke-miterlimit="1.45" transform="matrix(0.9322,0,0,0.9322,9.322,21.4407)" stroke-linecap="butt">
        <rect fill="none" width="51" x="35.5" height="30" y="211"/>
      </g>
    </g>
    <g id="y.node.9">
      <g fill="rgb(255,255,153)" transform="matrix(0.9322,0,0,0.9322,9.322,21.4407)" stroke="rgb(255,255,153)">
        <rect width="94" x="106.5" height="30" y="211" stroke="none"/>
      </g>
      <g id="bla">
        <g font-family="sans-serif" transform="matrix(0.9322,0,0,0.9322,9.322,21.4407)">
          <text xml:space="preserve" x="113.5" y="230.1543" stroke="none">Const 0x1 Is </text>
        </g>
      </g>
      <g stroke-miterlimit="1.45" transform="matrix(0.9322,0,0,0.9322,9.322,21.4407)" stroke-linecap="butt">
        <rect fill="none" width="94" x="106.5" height="30" y="211"/>
      </g>
    </g>
    <g id="y.node.10">
      <g fill="rgb(255,255,153)" transform="matrix(0.9322,0,0,0.9322,9.322,21.4407)" stroke="rgb(255,255,153)">
        <rect width="102" x="155.25" height="30" y="281" stroke="none"/>
      </g>
      <g id="bla">
        <g font-family="sans-serif" transform="matrix(0.9322,0,0,0.9322,9.322,21.4407)">
          <text xml:space="preserve" x="162.25" y="300.1543" stroke="none">Const 0x64 Is </text>
        </g>
      </g>
      <g stroke-miterlimit="1.45" transform="matrix(0.9322,0,0,0.9322,9.322,21.4407)" stroke-linecap="butt">
        <rect fill="none" width="102" x="155.25" height="30" y="281"/>
      </g>
    </g>
    <g id="y.node.11">
      <g fill="rgb(255,153,153)" transform="matrix(0.9322,0,0,0.9322,9.322,21.4407)" stroke="rgb(255,153,153)">
        <rect width="87" x="172.75" height="30" y="511" stroke="none"/>
      </g>
      <g id="bla">
        <g font-family="sans-serif" transform="matrix(0.9322,0,0,0.9322,9.322,21.4407)">
          <text xml:space="preserve" x="179.75" y="530.1543" stroke="none">Proj X false </text>
        </g>
      </g>
      <g stroke-miterlimit="1.45" transform="matrix(0.9322,0,0,0.9322,9.322,21.4407)" stroke-linecap="butt">
        <rect fill="none" width="87" x="172.75" height="30" y="511"/>
      </g>
    </g>
    <g id="y.node.12">
      <g fill="rgb(222,239,234)" transform="matrix(0.9322,0,0,0.9322,9.322,21.4407)" stroke="rgb(222,239,234)">
        <rect width="110" x="161.25" height="60" y="596" stroke="none"/>
      </g>
      <g id="bla">
        <g fill="rgb(64,64,64)" transform="matrix(0.9322,0,0,0.9322,9.322,21.4407)" stroke="rgb(64,64,64)">
          <rect width="110" x="161.25" height="22.625" y="596" stroke="none"/>
        </g>
        <g fill="white" font-size="16" font-family="sans-serif" transform="matrix(0.9322,0,0,0.9322,9.322,21.4407)" stroke="white">
          <text xml:space="preserve" x="217.25" y="612.8516" stroke="none">Block  </text>
        </g>
      </g>
      <g fill="white" transform="matrix(0.9322,0,0,0.9322,9.322,21.4407)" stroke="white">
        <rect width="1" x="161.25" height="60" y="596" stroke="none"/>
        <rect width="108" x="162.25" height="1" y="596" stroke="none"/>
        <rect x="162.25" y="655" fill="rgb(155,167,163)" width="109" height="1" stroke="none"/>
        <rect x="270.25" y="596" fill="rgb(155,167,163)" width="1" height="59" stroke="none"/>
      </g>
    </g>
    <g id="y.edge.0">
      <g fill="red" stroke-miterlimit="1.45" transform="matrix(0.9322,0,0,0.9322,9.322,21.4407)" stroke-linecap="butt" stroke="red">
        <path fill="none" d="M111.25 510.9609 L111.25 491 L150.25 491 L150.25 479"/>
        <path d="M150.25 471 L145.25 483 L150.25 480 L155.25 483 Z" stroke="none"/>
      </g>
      <g>
        <g stroke-miterlimit="1.45" font-family="sans-serif" transform="matrix(0.9322,0,0,0.9322,9.322,21.4407)" stroke-linecap="butt">
          <text xml:space="preserve" x="115.25" y="500.5918" stroke="none">0</text>
        </g>
      </g>
    </g>
    <g id="y.edge.1">
      <g stroke-miterlimit="1.45" transform="matrix(0.9322,0,0,0.9322,9.322,21.4407)" stroke-linecap="butt">
        <path fill="none" d="M163.75 440.9609 L163.75 409"/>
        <path d="M163.75 401 L158.75 413 L163.75 410 L168.75 413 Z" stroke="none"/>
      </g>
      <g>
        <g stroke-miterlimit="1.45" font-family="sans-serif" transform="matrix(0.9322,0,0,0.9322,9.322,21.4407)" stroke-linecap="butt">
          <text xml:space="preserve" x="167.75" y="426.0449" stroke="none">0</text>
        </g>
      </g>
    </g>
    <g id="y.edge.2">
      <g stroke-miterlimit="1.45" transform="matrix(0.9322,0,0,0.9322,9.322,21.4407)" stroke-linecap="butt">
        <path fill="none" d="M142.25 370.9609 L142.25 351 L121.25 351 L121.25 319"/>
        <path d="M121.25 311 L116.25 323 L121.25 320 L126.25 323 Z" stroke="none"/>
      </g>
      <g>
        <g stroke-miterlimit="1.45" font-family="sans-serif" transform="matrix(0.9322,0,0,0.9322,9.322,21.4407)" stroke-linecap="butt">
          <text xml:space="preserve" x="146.25" y="360.5918" stroke="none">0</text>
        </g>
      </g>
    </g>
    <g id="y.edge.3">
      <g stroke-miterlimit="1.45" transform="matrix(0.9322,0,0,0.9322,9.322,21.4407)" stroke-linecap="butt">
        <path fill="none" d="M185.25 370.9609 L185.25 351 L206.25 351 L206.25 319"/>
        <path d="M206.25 311 L201.25 323 L206.25 320 L211.25 323 Z" stroke="none"/>
      </g>
      <g>
        <g stroke-miterlimit="1.45" font-family="sans-serif" transform="matrix(0.9322,0,0,0.9322,9.322,21.4407)" stroke-linecap="butt">
          <text xml:space="preserve" x="189.25" y="360.5918" stroke="none">1</text>
        </g>
      </g>
    </g>
    <g id="y.edge.4">
      <g stroke-miterlimit="1.45" transform="matrix(0.9322,0,0,0.9322,9.322,21.4407)" stroke-linecap="butt">
        <path fill="none" d="M93.25 280.9609 L93.25 261 L61 261 L61 249"/>
        <path d="M61 241 L56 253 L61 250 L66 253 Z" stroke="none"/>
      </g>
      <g>
        <g stroke-miterlimit="1.45" font-family="sans-serif" transform="matrix(0.9322,0,0,0.9322,9.322,21.4407)" stroke-linecap="butt">
          <text xml:space="preserve" x="97.25" y="270.5918" stroke="none">0</text>
        </g>
      </g>
    </g>
    <g id="y.edge.5">
      <g stroke-miterlimit="1.45" transform="matrix(0.9322,0,0,0.9322,9.322,21.4407)" stroke-linecap="butt">
        <path fill="none" d="M121.25 280.9609 L121.25 261 L153.5 261 L153.5 249"/>
        <path d="M153.5 241 L148.5 253 L153.5 250 L158.5 253 Z" stroke="none"/>
      </g>
      <g>
        <g stroke-miterlimit="1.45" font-family="sans-serif" transform="matrix(0.9322,0,0,0.9322,9.322,21.4407)" stroke-linecap="butt">
          <text xml:space="preserve" x="125.25" y="270.5918" stroke="none">1</text>
        </g>
      </g>
    </g>
    <g id="y.edge.6">
      <g stroke-miterlimit="1.45" transform="matrix(0.9322,0,0,0.9322,9.322,21.4407)" stroke-linecap="butt">
        <path fill="none" d="M73.75 210.9736 L73.75 103 L107.6875 103 L107.6875 76"/>
        <path d="M107.6875 68 L102.6875 80 L107.6875 77 L112.6875 80 Z" stroke="none"/>
      </g>
      <g>
        <g stroke-miterlimit="1.45" font-family="sans-serif" transform="matrix(0.9322,0,0,0.9322,9.322,21.4407)" stroke-linecap="butt">
          <text xml:space="preserve" x="77.75" y="196.0449" stroke="none">0</text>
        </g>
      </g>
    </g>
    <g id="y.edge.7">
      <g stroke-miterlimit="1.45" transform="matrix(0.9322,0,0,0.9322,9.322,21.4407)" stroke-linecap="butt">
        <path fill="none" d="M48.25 210.9609 L48.25 191 L25 191 L25 331 L93.25 331 L93.25 319"/>
        <path d="M93.25 311 L88.25 323 L93.25 320 L98.25 323 Z" stroke="none"/>
      </g>
      <g>
        <g stroke-miterlimit="1.45" font-family="sans-serif" transform="matrix(0.9322,0,0,0.9322,9.322,21.4407)" stroke-linecap="butt">
          <text xml:space="preserve" x="52.25" y="200.5918" stroke="none">1</text>
        </g>
      </g>
    </g>
    <g id="y.edge.8">
      <g fill="red" stroke-miterlimit="1.45" transform="matrix(0.9322,0,0,0.9322,9.322,21.4407)" stroke-linecap="butt" stroke="red">
        <path fill="none" d="M216.25 510.9609 L216.25 491 L177.25 491 L177.25 479"/>
        <path d="M177.25 471 L172.25 483 L177.25 480 L182.25 483 Z" stroke="none"/>
      </g>
      <g>
        <g stroke-miterlimit="1.45" font-family="sans-serif" transform="matrix(0.9322,0,0,0.9322,9.322,21.4407)" stroke-linecap="butt">
          <text xml:space="preserve" x="220.25" y="500.5918" stroke="none">0</text>
        </g>
      </g>
    </g>
    <g id="y.edge.9">
      <g fill="red" stroke-miterlimit="1.45" transform="matrix(0.9322,0,0,0.9322,9.322,21.4407)" stroke-linecap="butt" stroke="red">
        <path fill="none" d="M230.625 142.9609 L230.625 103 L196.6875 103 L196.6875 76"/>
        <path d="M196.6875 68 L191.6875 80 L196.6875 77 L201.6875 80 Z" stroke="none"/>
      </g>
      <g>
        <g stroke-miterlimit="1.45" font-family="sans-serif" transform="matrix(0.9322,0,0,0.9322,9.322,21.4407)" stroke-linecap="butt">
          <text xml:space="preserve" x="234.625" y="128.0449" stroke="none">0</text>
        </g>
      </g>
    </g>
    <g id="y.edge.10">
      <g fill="red" stroke-miterlimit="1.45" transform="matrix(0.9322,0,0,0.9322,9.322,21.4407)" stroke-linecap="butt" stroke="red">
        <path fill="none" d="M54.125 142.9609 L54.125 123 L0 123 L0 576 L111.25 576 L111.25 549"/>
        <path d="M111.25 541 L106.25 553 L111.25 550 L116.25 553 Z" stroke="none"/>
      </g>
      <g>
        <g stroke-miterlimit="1.45" font-family="sans-serif" transform="matrix(0.9322,0,0,0.9322,9.322,21.4407)" stroke-linecap="butt">
          <text xml:space="preserve" x="58.125" y="132.5918" stroke="none">1</text>
        </g>
      </g>
    </g>
    <g id="y.edge.11">
      <g fill="red" stroke-miterlimit="1.45" transform="matrix(0.9322,0,0,0.9322,9.322,21.4407)" stroke-linecap="butt" stroke="red">
        <path fill="none" d="M216.25 595.9731 L216.25 549"/>
        <path d="M216.25 541 L211.25 553 L216.25 550 L221.25 553 Z" stroke="none"/>
      </g>
      <g>
        <g stroke-miterlimit="1.45" font-family="sans-serif" transform="matrix(0.9322,0,0,0.9322,9.322,21.4407)" stroke-linecap="butt">
          <text xml:space="preserve" x="220.25" y="581.0449" stroke="none">0</text>
        </g>
      </g>
    </g>
  </g>
</svg>
