<?xml version="1.0" encoding="UTF-8"?><svg xmlns="http://www.w3.org/2000/svg" xmlns:xlink="http://www.w3.org/1999/xlink" fill-opacity="1" color-rendering="auto" color-interpolation="auto" text-rendering="auto" stroke="black" stroke-linecap="square" width="265" stroke-miterlimit="10" shape-rendering="auto" stroke-opacity="1" fill="black" stroke-dasharray="none" font-weight="normal" stroke-width="1" height="616" font-family="'Dialog'" font-style="normal" stroke-linejoin="miter" font-size="12" stroke-dashoffset="0" image-rendering="auto">
  <!--Generated by ySVG-->
  <defs id="genericDefs"/>
  <g>
    <defs id="defs1">
      <clipPath clipPathUnits="userSpaceOnUse" id="clipPath1">
        <path d="M0 0 L265 0 L265 616 L0 616 L0 0 Z"/>
      </clipPath>
      <clipPath clipPathUnits="userSpaceOnUse" id="clipPath2">
        <path d="M-10 -23 L275 -23 L275 639.4905 L-10 639.4905 L-10 -23 Z"/>
      </clipPath>
    </defs>
    <g fill="white" transform="scale(0.9298,0.9298) translate(10,23)" stroke="white">
      <rect x="-10" y="-23" clip-path="url(#clipPath2)" width="285" height="663" stroke="none"/>
    </g>
    <g id="y.node.0">
      <g fill="rgb(222,239,234)" transform="matrix(0.9298,0,0,0.9298,9.2982,21.386)" stroke="rgb(222,239,234)">
        <rect width="188" x="17.2222" height="83" y="0" stroke="none"/>
      </g>
      <g id="bla">
        <g fill="rgb(64,64,64)" transform="matrix(0.9298,0,0,0.9298,9.2982,21.386)" stroke="rgb(64,64,64)">
          <rect width="188" x="17.2222" height="22.625" y="0" stroke="none"/>
        </g>
        <g fill="white" font-size="16" font-family="sans-serif" transform="matrix(0.9298,0,0,0.9298,9.2982,21.386)" stroke="white">
          <text xml:space="preserve" x="151.2222" y="16.8516" stroke="none">Block  </text>
        </g>
      </g>
      <g fill="white" transform="matrix(0.9298,0,0,0.9298,9.2982,21.386)" stroke="white">
        <rect width="1" x="17.2222" height="83" y="0" stroke="none"/>
        <rect width="186" x="18.2222" height="1" y="0" stroke="none"/>
        <rect x="18.2222" y="82" fill="rgb(155,167,163)" width="187" height="1" stroke="none"/>
        <rect x="204.2222" y="0" fill="rgb(155,167,163)" width="1" height="82" stroke="none"/>
      </g>
    </g>
    <g id="y.node.1">
      <g fill="rgb(255,153,153)" transform="matrix(0.9298,0,0,0.9298,9.2982,21.386)" stroke="rgb(255,153,153)">
        <rect width="44" x="146.2222" height="30" y="38" stroke="none"/>
      </g>
      <g id="bla">
        <g font-family="sans-serif" transform="matrix(0.9298,0,0,0.9298,9.2982,21.386)">
          <text xml:space="preserve" x="153.2222" y="57.1543" stroke="none">Jmp  </text>
        </g>
      </g>
      <g stroke-miterlimit="1.45" transform="matrix(0.9298,0,0,0.9298,9.2982,21.386)" stroke-linecap="butt">
        <rect fill="none" width="44" x="146.2222" height="30" y="38"/>
      </g>
    </g>
    <g id="y.node.2">
      <g fill="rgb(255,255,153)" transform="matrix(0.9298,0,0,0.9298,9.2982,21.386)" stroke="rgb(255,255,153)">
        <rect width="94" x="32.2222" height="30" y="38" stroke="none"/>
      </g>
      <g id="bla">
        <g font-family="sans-serif" transform="matrix(0.9298,0,0,0.9298,9.2982,21.386)">
          <text xml:space="preserve" x="39.2222" y="57.1543" stroke="none">Const 0x0 Is </text>
        </g>
      </g>
      <g stroke-miterlimit="1.45" transform="matrix(0.9298,0,0,0.9298,9.2982,21.386)" stroke-linecap="butt">
        <rect fill="none" width="94" x="32.2222" height="30" y="38"/>
      </g>
    </g>
    <g id="y.node.3">
      <g fill="rgb(222,239,234)" transform="matrix(0.9298,0,0,0.9298,9.2982,21.386)" stroke="rgb(222,239,234)">
        <rect width="254.9333" x="10" height="373" y="143" stroke="none"/>
      </g>
      <g id="bla">
        <g fill="rgb(64,64,64)" transform="matrix(0.9298,0,0,0.9298,9.2982,21.386)" stroke="rgb(64,64,64)">
          <rect width="254.9333" x="10" height="22.625" y="143" stroke="none"/>
        </g>
        <g fill="white" font-size="16" font-family="sans-serif" transform="matrix(0.9298,0,0,0.9298,9.2982,21.386)" stroke="white">
          <text xml:space="preserve" x="210.9333" y="159.8516" stroke="none">Block  </text>
        </g>
      </g>
      <g fill="white" transform="matrix(0.9298,0,0,0.9298,9.2982,21.386)" stroke="white">
        <rect width="1" x="10" height="373" y="143" stroke="none"/>
        <rect width="252.9333" x="11" height="1" y="143" stroke="none"/>
        <rect x="11" y="515" fill="rgb(155,167,163)" width="253.9333" height="1" stroke="none"/>
        <rect x="263.9333" y="143" fill="rgb(155,167,163)" width="1" height="372" stroke="none"/>
      </g>
    </g>
    <g id="y.node.4">
      <g fill="rgb(255,153,153)" transform="matrix(0.9298,0,0,0.9298,9.2982,21.386)" stroke="rgb(255,153,153)">
        <rect width="83" x="59.9333" height="30" y="471" stroke="none"/>
      </g>
      <g id="bla">
        <g font-family="sans-serif" transform="matrix(0.9298,0,0,0.9298,9.2982,21.386)">
          <text xml:space="preserve" x="66.9333" y="490.1543" stroke="none">Proj X true </text>
        </g>
      </g>
      <g stroke-miterlimit="1.45" transform="matrix(0.9298,0,0,0.9298,9.2982,21.386)" stroke-linecap="butt">
        <rect fill="none" width="83" x="59.9333" height="30" y="471"/>
      </g>
    </g>
    <g id="y.node.5">
      <g fill="rgb(255,153,153)" transform="matrix(0.9298,0,0,0.9298,9.2982,21.386)" stroke="rgb(255,153,153)">
        <rect width="54" x="138.85" height="30" y="401" stroke="none"/>
      </g>
      <g id="bla">
        <g font-family="sans-serif" transform="matrix(0.9298,0,0,0.9298,9.2982,21.386)">
          <text xml:space="preserve" x="145.85" y="420.1543" stroke="none">Cond  </text>
        </g>
      </g>
      <g stroke-miterlimit="1.45" transform="matrix(0.9298,0,0,0.9298,9.2982,21.386)" stroke-linecap="butt">
        <rect fill="none" width="54" x="138.85" height="30" y="401"/>
      </g>
    </g>
    <g id="y.node.6">
      <g fill="white" transform="matrix(0.9298,0,0,0.9298,9.2982,21.386)" stroke="white">
        <rect width="86" x="122.85" height="30" y="331" stroke="none"/>
      </g>
      <g id="bla">
        <g font-family="sans-serif" transform="matrix(0.9298,0,0,0.9298,9.2982,21.386)">
          <text xml:space="preserve" x="129.85" y="350.1543" stroke="none">Cmp b less </text>
        </g>
      </g>
      <g stroke-miterlimit="1.45" transform="matrix(0.9298,0,0,0.9298,9.2982,21.386)" stroke-linecap="butt">
        <rect fill="none" width="86" x="122.85" height="30" y="331"/>
      </g>
    </g>
    <g id="y.node.7">
      <g fill="white" transform="matrix(0.9298,0,0,0.9298,9.2982,21.386)" stroke="white">
        <rect width="56" x="69.4333" height="30" y="251" stroke="none"/>
      </g>
      <g id="bla">
        <g font-family="sans-serif" transform="matrix(0.9298,0,0,0.9298,9.2982,21.386)">
          <text xml:space="preserve" x="76.4333" y="270.1543" stroke="none">Add Is </text>
        </g>
      </g>
      <g stroke-miterlimit="1.45" transform="matrix(0.9298,0,0,0.9298,9.2982,21.386)" stroke-linecap="butt">
        <rect fill="none" width="56" x="69.4333" height="30" y="251"/>
      </g>
    </g>
    <g id="y.node.8">
      <g fill="rgb(153,255,153)" transform="matrix(0.9298,0,0,0.9298,9.2982,21.386)" stroke="rgb(153,255,153)">
        <rect width="51" x="36.1" height="30" y="331" stroke="none"/>
      </g>
      <g id="bla">
        <g font-family="sans-serif" transform="matrix(0.9298,0,0,0.9298,9.2982,21.386)">
          <text xml:space="preserve" x="43.1" y="350.1543" stroke="none">Phi Is </text>
        </g>
      </g>
      <g stroke-miterlimit="1.45" transform="matrix(0.9298,0,0,0.9298,9.2982,21.386)" stroke-linecap="butt">
        <rect fill="none" width="51" x="36.1" height="30" y="331"/>
      </g>
    </g>
    <g id="y.node.9">
      <g fill="rgb(255,255,153)" transform="matrix(0.9298,0,0,0.9298,9.2982,21.386)" stroke="rgb(255,255,153)">
        <rect width="94" x="64.4333" height="30" y="181" stroke="none"/>
      </g>
      <g id="bla">
        <g font-family="sans-serif" transform="matrix(0.9298,0,0,0.9298,9.2982,21.386)">
          <text xml:space="preserve" x="71.4333" y="200.1543" stroke="none">Const 0x1 Is </text>
        </g>
      </g>
      <g stroke-miterlimit="1.45" transform="matrix(0.9298,0,0,0.9298,9.2982,21.386)" stroke-linecap="butt">
        <rect fill="none" width="94" x="64.4333" height="30" y="181"/>
      </g>
    </g>
    <g id="y.node.10">
      <g fill="rgb(255,255,153)" transform="matrix(0.9298,0,0,0.9298,9.2982,21.386)" stroke="rgb(255,255,153)">
        <rect width="102" x="145.4333" height="30" y="251" stroke="none"/>
      </g>
      <g id="bla">
        <g font-family="sans-serif" transform="matrix(0.9298,0,0,0.9298,9.2982,21.386)">
          <text xml:space="preserve" x="152.4333" y="270.1543" stroke="none">Const 0x64 Is </text>
        </g>
      </g>
      <g stroke-miterlimit="1.45" transform="matrix(0.9298,0,0,0.9298,9.2982,21.386)" stroke-linecap="butt">
        <rect fill="none" width="102" x="145.4333" height="30" y="251"/>
      </g>
    </g>
    <g id="y.node.11">
      <g fill="rgb(255,153,153)" transform="matrix(0.9298,0,0,0.9298,9.2982,21.386)" stroke="rgb(255,153,153)">
        <rect width="87" x="162.9333" height="30" y="471" stroke="none"/>
      </g>
      <g id="bla">
        <g font-family="sans-serif" transform="matrix(0.9298,0,0,0.9298,9.2982,21.386)">
          <text xml:space="preserve" x="169.9333" y="490.1543" stroke="none">Proj X false </text>
        </g>
      </g>
      <g stroke-miterlimit="1.45" transform="matrix(0.9298,0,0,0.9298,9.2982,21.386)" stroke-linecap="butt">
        <rect fill="none" width="87" x="162.9333" height="30" y="471"/>
      </g>
    </g>
    <g id="y.node.12">
      <g fill="rgb(222,239,234)" transform="matrix(0.9298,0,0,0.9298,9.2982,21.386)" stroke="rgb(222,239,234)">
        <rect width="110" x="151.4333" height="60" y="556" stroke="none"/>
      </g>
      <g id="bla">
        <g fill="rgb(64,64,64)" transform="matrix(0.9298,0,0,0.9298,9.2982,21.386)" stroke="rgb(64,64,64)">
          <rect width="110" x="151.4333" height="22.625" y="556" stroke="none"/>
        </g>
        <g fill="white" font-size="16" font-family="sans-serif" transform="matrix(0.9298,0,0,0.9298,9.2982,21.386)" stroke="white">
          <text xml:space="preserve" x="207.4333" y="572.8516" stroke="none">Block  </text>
        </g>
      </g>
      <g fill="white" transform="matrix(0.9298,0,0,0.9298,9.2982,21.386)" stroke="white">
        <rect width="1" x="151.4333" height="60" y="556" stroke="none"/>
        <rect width="108" x="152.4333" height="1" y="556" stroke="none"/>
        <rect x="152.4333" y="615" fill="rgb(155,167,163)" width="109" height="1" stroke="none"/>
        <rect x="260.4333" y="556" fill="rgb(155,167,163)" width="1" height="59" stroke="none"/>
      </g>
    </g>
    <g id="y.edge.0">
      <g fill="red" stroke-miterlimit="1.45" transform="matrix(0.9298,0,0,0.9298,9.2982,21.386)" stroke-linecap="butt" stroke="red">
        <path fill="none" d="M101.4333 470.9609 L101.4333 451 L152.35 451 L152.35 439"/>
        <path d="M152.35 431 L147.35 443 L152.35 440 L157.35 443 Z" stroke="none"/>
      </g>
      <g>
        <g stroke-miterlimit="1.45" font-family="sans-serif" transform="matrix(0.9298,0,0,0.9298,9.2982,21.386)" stroke-linecap="butt">
          <text xml:space="preserve" x="105.4333" y="460.5918" stroke="none">0</text>
        </g>
      </g>
    </g>
    <g id="y.edge.1">
      <g stroke-miterlimit="1.45" transform="matrix(0.9298,0,0,0.9298,9.2982,21.386)" stroke-linecap="butt">
        <path fill="none" d="M165.85 400.9609 L165.85 369"/>
        <path d="M165.85 361 L160.85 373 L165.85 370 L170.85 373 Z" stroke="none"/>
      </g>
      <g>
        <g stroke-miterlimit="1.45" font-family="sans-serif" transform="matrix(0.9298,0,0,0.9298,9.2982,21.386)" stroke-linecap="butt">
          <text xml:space="preserve" x="169.85" y="386.0449" stroke="none">0</text>
        </g>
      </g>
    </g>
    <g id="y.edge.2">
      <g stroke-miterlimit="1.45" transform="matrix(0.9298,0,0,0.9298,9.2982,21.386)" stroke-linecap="butt">
        <path fill="none" d="M144.35 330.9707 L144.35 301 L111.4333 301 L111.4333 289"/>
        <path d="M111.4333 281 L106.4333 293 L111.4333 290 L116.4333 293 Z" stroke="none"/>
      </g>
      <g>
        <g stroke-miterlimit="1.45" font-family="sans-serif" transform="matrix(0.9298,0,0,0.9298,9.2982,21.386)" stroke-linecap="butt">
          <text xml:space="preserve" x="148.35" y="316.0449" stroke="none">0</text>
        </g>
      </g>
    </g>
    <g id="y.edge.3">
      <g stroke-miterlimit="1.45" transform="matrix(0.9298,0,0,0.9298,9.2982,21.386)" stroke-linecap="butt">
        <path fill="none" d="M187.35 330.9707 L187.35 301 L196.4333 301 L196.4333 289"/>
        <path d="M196.4333 281 L191.4333 293 L196.4333 290 L201.4333 293 Z" stroke="none"/>
      </g>
      <g>
        <g stroke-miterlimit="1.45" font-family="sans-serif" transform="matrix(0.9298,0,0,0.9298,9.2982,21.386)" stroke-linecap="butt">
          <text xml:space="preserve" x="191.35" y="316.0449" stroke="none">1</text>
        </g>
      </g>
    </g>
    <g id="y.edge.4">
      <g stroke-miterlimit="1.45" transform="matrix(0.9298,0,0,0.9298,9.2982,21.386)" stroke-linecap="butt">
        <path fill="none" d="M83.4333 250.9609 L83.4333 231 L36 231 L36 311 L25.6 311 L25.6 381 L61.6 381 L61.6 369"/>
        <path d="M61.6 361 L56.6 373 L61.6 370 L66.6 373 Z" stroke="none"/>
      </g>
      <g>
        <g stroke-miterlimit="1.45" font-family="sans-serif" transform="matrix(0.9298,0,0,0.9298,9.2982,21.386)" stroke-linecap="butt">
          <text xml:space="preserve" x="87.4333" y="240.5918" stroke="none">0</text>
        </g>
      </g>
    </g>
    <g id="y.edge.5">
      <g stroke-miterlimit="1.45" transform="matrix(0.9298,0,0,0.9298,9.2982,21.386)" stroke-linecap="butt">
        <path fill="none" d="M111.4333 250.9609 L111.4333 219"/>
        <path d="M111.4333 211 L106.4333 223 L111.4333 220 L116.4333 223 Z" stroke="none"/>
      </g>
      <g>
        <g stroke-miterlimit="1.45" font-family="sans-serif" transform="matrix(0.9298,0,0,0.9298,9.2982,21.386)" stroke-linecap="butt">
          <text xml:space="preserve" x="115.4333" y="236.0449" stroke="none">1</text>
        </g>
      </g>
    </g>
    <g id="y.edge.6">
      <g stroke-miterlimit="1.45" transform="matrix(0.9298,0,0,0.9298,9.2982,21.386)" stroke-linecap="butt">
        <path fill="none" d="M48.85 330.9707 L48.85 301 L25 301 L25 103 L79.2222 103 L79.2222 76"/>
        <path d="M79.2222 68 L74.2222 80 L79.2222 77 L84.2222 80 Z" stroke="none"/>
      </g>
      <g>
        <g stroke-miterlimit="1.45" font-family="sans-serif" transform="matrix(0.9298,0,0,0.9298,9.2982,21.386)" stroke-linecap="butt">
          <text xml:space="preserve" x="52.85" y="316.0449" stroke="none">0</text>
        </g>
      </g>
    </g>
    <g id="y.edge.7">
      <g stroke-miterlimit="1.45" transform="matrix(0.9298,0,0,0.9298,9.2982,21.386)" stroke-linecap="butt">
        <path fill="none" d="M74.35 330.9707 L74.35 301 L83.4333 301 L83.4333 289"/>
        <path d="M83.4333 281 L78.4333 293 L83.4333 290 L88.4333 293 Z" stroke="none"/>
      </g>
      <g>
        <g stroke-miterlimit="1.45" font-family="sans-serif" transform="matrix(0.9298,0,0,0.9298,9.2982,21.386)" stroke-linecap="butt">
          <text xml:space="preserve" x="78.35" y="316.0449" stroke="none">1</text>
        </g>
      </g>
    </g>
    <g id="y.edge.8">
      <g fill="red" stroke-miterlimit="1.45" transform="matrix(0.9298,0,0,0.9298,9.2982,21.386)" stroke-linecap="butt" stroke="red">
        <path fill="none" d="M206.4333 470.9609 L206.4333 451 L179.35 451 L179.35 439"/>
        <path d="M179.35 431 L174.35 443 L179.35 440 L184.35 443 Z" stroke="none"/>
      </g>
      <g>
        <g stroke-miterlimit="1.45" font-family="sans-serif" transform="matrix(0.9298,0,0,0.9298,9.2982,21.386)" stroke-linecap="butt">
          <text xml:space="preserve" x="210.4333" y="460.5918" stroke="none">0</text>
        </g>
      </g>
    </g>
    <g id="y.edge.9">
      <g fill="red" stroke-miterlimit="1.45" transform="matrix(0.9298,0,0,0.9298,9.2982,21.386)" stroke-linecap="butt" stroke="red">
        <path fill="none" d="M222.4444 142.9609 L222.4444 103 L168.2222 103 L168.2222 76"/>
        <path d="M168.2222 68 L163.2222 80 L168.2222 77 L173.2222 80 Z" stroke="none"/>
      </g>
      <g>
        <g stroke-miterlimit="1.45" font-family="sans-serif" transform="matrix(0.9298,0,0,0.9298,9.2982,21.386)" stroke-linecap="butt">
          <text xml:space="preserve" x="226.4444" y="128.0449" stroke="none">0</text>
        </g>
      </g>
    </g>
    <g id="y.edge.10">
      <g fill="red" stroke-miterlimit="1.45" transform="matrix(0.9298,0,0,0.9298,9.2982,21.386)" stroke-linecap="butt" stroke="red">
        <path fill="none" d="M52.4889 142.9609 L52.4889 123 L0 123 L0 536 L101.4333 536 L101.4333 509"/>
        <path d="M101.4333 501 L96.4333 513 L101.4333 510 L106.4333 513 Z" stroke="none"/>
      </g>
      <g>
        <g stroke-miterlimit="1.45" font-family="sans-serif" transform="matrix(0.9298,0,0,0.9298,9.2982,21.386)" stroke-linecap="butt">
          <text xml:space="preserve" x="56.4889" y="132.5918" stroke="none">1</text>
        </g>
      </g>
    </g>
    <g id="y.edge.11">
      <g fill="red" stroke-miterlimit="1.45" transform="matrix(0.9298,0,0,0.9298,9.2982,21.386)" stroke-linecap="butt" stroke="red">
        <path fill="none" d="M206.4333 555.9731 L206.4333 509"/>
        <path d="M206.4333 501 L201.4333 513 L206.4333 510 L211.4333 513 Z" stroke="none"/>
      </g>
      <g>
        <g stroke-miterlimit="1.45" font-family="sans-serif" transform="matrix(0.9298,0,0,0.9298,9.2982,21.386)" stroke-linecap="butt">
          <text xml:space="preserve" x="210.4333" y="541.0449" stroke="none">0</text>
        </g>
      </g>
    </g>
  </g>
</svg>
