<?xml version="1.0" encoding="UTF-8"?><svg xmlns="http://www.w3.org/2000/svg" xmlns:xlink="http://www.w3.org/1999/xlink" fill-opacity="1" color-rendering="auto" color-interpolation="auto" text-rendering="auto" stroke="black" stroke-linecap="square" width="168" stroke-miterlimit="10" shape-rendering="auto" stroke-opacity="1" fill="black" stroke-dasharray="none" font-weight="normal" stroke-width="1" height="240" font-family="'Dialog'" font-style="normal" stroke-linejoin="miter" font-size="12" stroke-dashoffset="0" image-rendering="auto">
  <!--Generated by ySVG-->
  <defs id="genericDefs"/>
  <g>
    <defs id="defs1">
      <clipPath clipPathUnits="userSpaceOnUse" id="clipPath1">
        <path d="M0 0 L168 0 L168 240 L0 240 L0 0 Z"/>
      </clipPath>
      <clipPath clipPathUnits="userSpaceOnUse" id="clipPath2">
        <path d="M-10 -14 L178 -14 L178 254.5714 L-10 254.5714 L-10 -14 Z"/>
      </clipPath>
    </defs>
    <g fill="white" transform="scale(0.8936,0.8936) translate(10,14)" stroke="white">
      <rect x="-10" y="-14" clip-path="url(#clipPath2)" width="188" height="269" stroke="none"/>
    </g>
    <g id="y.node.0">
      <g fill="rgb(255,255,255)" fill-opacity="0" transform="matrix(0.8936,0,0,0.8936,8.9362,12.5106)" stroke-opacity="0" stroke="rgb(255,255,255)">
        <rect width="30" x="115" height="30" y="70" stroke="none"/>
      </g>
      <g id="bla"/>
      <g stroke-linecap="butt" transform="matrix(0.8936,0,0,0.8936,8.9362,12.5106)" fill-opacity="0" fill="rgb(255,255,255)" stroke="rgb(255,255,255)" stroke-opacity="0" stroke-miterlimit="1.45">
        <rect fill="none" width="30" x="115" height="30" y="70"/>
      </g>
    </g>
    <g id="y.node.1">
      <g fill="rgb(255,255,255)" fill-opacity="0" transform="matrix(0.8936,0,0,0.8936,8.9362,12.5106)" stroke-opacity="0" stroke="rgb(255,255,255)">
        <rect width="30" x="37.75" height="30" y="210" stroke="none"/>
      </g>
      <g id="bla"/>
      <g stroke-linecap="butt" transform="matrix(0.8936,0,0,0.8936,8.9362,12.5106)" fill-opacity="0" fill="rgb(255,255,255)" stroke="rgb(255,255,255)" stroke-opacity="0" stroke-miterlimit="1.45">
        <rect fill="none" width="30" x="37.75" height="30" y="210"/>
      </g>
    </g>
    <g id="y.node.2">
      <g fill="white" transform="matrix(0.8936,0,0,0.8936,8.9362,12.5106)" stroke="white">
        <rect width="80" x="87.75" height="30" y="210" stroke="none"/>
      </g>
      <g id="bla">
        <g font-family="sans-serif" transform="matrix(0.8936,0,0,0.8936,8.9362,12.5106)">
          <text xml:space="preserve" x="94.75" y="229.1543" stroke="none">Proj Is res </text>
        </g>
      </g>
      <g stroke-miterlimit="1.45" transform="matrix(0.8936,0,0,0.8936,8.9362,12.5106)" stroke-linecap="butt">
        <rect fill="none" width="80" x="87.75" height="30" y="210"/>
      </g>
    </g>
    <g id="y.node.3">
      <g fill="rgb(153,153,255)" transform="matrix(0.8936,0,0,0.8936,8.9362,12.5106)" stroke="rgb(153,153,255)">
        <rect width="72" x="54.25" height="30" y="140" stroke="none"/>
      </g>
      <g id="bla">
        <g font-family="sans-serif" transform="matrix(0.8936,0,0,0.8936,8.9362,12.5106)">
          <text xml:space="preserve" x="61.25" y="159.1543" stroke="none">Load[Is]  </text>
        </g>
      </g>
      <g stroke-miterlimit="1.45" transform="matrix(0.8936,0,0,0.8936,8.9362,12.5106)" stroke-linecap="butt">
        <rect fill="none" width="72" x="54.25" height="30" y="140"/>
      </g>
    </g>
    <g id="y.node.4">
      <g fill="white" transform="matrix(0.8936,0,0,0.8936,8.9362,12.5106)" stroke="white">
        <rect width="89" x="6" height="30" y="70" stroke="none"/>
      </g>
      <g id="bla">
        <g font-family="sans-serif" transform="matrix(0.8936,0,0,0.8936,8.9362,12.5106)">
          <text xml:space="preserve" x="13" y="89.1543" stroke="none">Member P z </text>
        </g>
      </g>
      <g stroke-miterlimit="1.45" transform="matrix(0.8936,0,0,0.8936,8.9362,12.5106)" stroke-linecap="butt">
        <rect fill="none" width="89" x="6" height="30" y="70"/>
      </g>
    </g>
    <g id="y.node.5">
      <g fill="rgb(255,255,153)" transform="matrix(0.8936,0,0,0.8936,8.9362,12.5106)" stroke="rgb(255,255,153)">
        <rect width="101" x="0" height="30" y="0" stroke="none"/>
      </g>
      <g id="bla">
        <g font-family="sans-serif" transform="matrix(0.8936,0,0,0.8936,8.9362,12.5106)">
          <text xml:space="preserve" x="7" y="19.1543" stroke="none">Address &amp;x P </text>
        </g>
      </g>
      <g stroke-miterlimit="1.45" transform="matrix(0.8936,0,0,0.8936,8.9362,12.5106)" stroke-linecap="butt">
        <rect fill="none" width="101" x="0" height="30" y="0"/>
      </g>
    </g>
    <g id="y.edge.0">
      <g fill="rgb(100,100,255)" stroke-miterlimit="1.45" transform="matrix(0.8936,0,0,0.8936,8.9362,12.5106)" stroke-linecap="butt" stroke="rgb(100,100,255)">
        <path fill="none" d="M52.75 209.9609 L52.75 190 L72.25 190 L72.25 178"/>
      </g>
      <g fill="rgb(100,100,255)" stroke-miterlimit="1.45" transform="matrix(0.8936,0,0,0.8936,8.9362,12.5106)" stroke-linecap="butt" stroke="rgb(100,100,255)">
        <path d="M72.25 170 L67.25 182 L72.25 179 L77.25 182 Z" stroke="none"/>
      </g>
      <g>
        <g stroke-miterlimit="1.45" font-family="sans-serif" transform="matrix(0.8936,0,0,0.8936,8.9362,12.5106)" stroke-linecap="butt">
          <text xml:space="preserve" x="56.75" y="199.5918" stroke="none">0</text>
        </g>
      </g>
    </g>
    <g id="y.edge.1">
      <g stroke-miterlimit="1.45" transform="matrix(0.8936,0,0,0.8936,8.9362,12.5106)" stroke-linecap="butt">
        <path fill="none" d="M127.75 209.9609 L127.75 190 L108.25 190 L108.25 178"/>
        <path d="M108.25 170 L103.25 182 L108.25 179 L113.25 182 Z" stroke="none"/>
      </g>
      <g>
        <g stroke-miterlimit="1.45" font-family="sans-serif" transform="matrix(0.8936,0,0,0.8936,8.9362,12.5106)" stroke-linecap="butt">
          <text xml:space="preserve" x="131.75" y="199.5918" stroke="none">0</text>
        </g>
      </g>
    </g>
    <g id="y.edge.2">
      <g fill="rgb(100,100,255)" stroke-miterlimit="1.45" transform="matrix(0.8936,0,0,0.8936,8.9362,12.5106)" stroke-linecap="butt" stroke="rgb(100,100,255)">
        <path fill="none" d="M108.25 139.9609 L108.25 120 L130 120 L130 108"/>
        <path d="M130 100 L125 112 L130 109 L135 112 Z" stroke="none"/>
      </g>
      <g>
        <g stroke-miterlimit="1.45" font-family="sans-serif" transform="matrix(0.8936,0,0,0.8936,8.9362,12.5106)" stroke-linecap="butt">
          <text xml:space="preserve" x="112.25" y="129.5918" stroke="none">0</text>
        </g>
      </g>
    </g>
    <g id="y.edge.3">
      <g stroke-miterlimit="1.45" transform="matrix(0.8936,0,0,0.8936,8.9362,12.5106)" stroke-linecap="butt">
        <path fill="none" d="M72.25 139.9609 L72.25 120 L50.5 120 L50.5 108"/>
        <path d="M50.5 100 L45.5 112 L50.5 109 L55.5 112 Z" stroke="none"/>
      </g>
      <g>
        <g stroke-miterlimit="1.45" font-family="sans-serif" transform="matrix(0.8936,0,0,0.8936,8.9362,12.5106)" stroke-linecap="butt">
          <text xml:space="preserve" x="76.25" y="129.5918" stroke="none">1</text>
        </g>
      </g>
    </g>
    <g id="y.edge.4">
      <g stroke-miterlimit="1.45" transform="matrix(0.8936,0,0,0.8936,8.9362,12.5106)" stroke-linecap="butt">
        <path fill="none" d="M50.5 69.9609 L50.5 38"/>
        <path d="M50.5 30 L45.5 42 L50.5 39 L55.5 42 Z" stroke="none"/>
      </g>
      <g>
        <g stroke-miterlimit="1.45" font-family="sans-serif" transform="matrix(0.8936,0,0,0.8936,8.9362,12.5106)" stroke-linecap="butt">
          <text xml:space="preserve" x="54.5" y="55.0449" stroke="none">0</text>
        </g>
      </g>
    </g>
  </g>
</svg>
