<?xml version="1.0" encoding="UTF-8"?><svg xmlns="http://www.w3.org/2000/svg" xmlns:xlink="http://www.w3.org/1999/xlink" fill-opacity="1" color-rendering="auto" color-interpolation="auto" text-rendering="auto" stroke="black" stroke-linecap="square" width="288" stroke-miterlimit="10" shape-rendering="auto" stroke-opacity="1" fill="black" stroke-dasharray="none" font-weight="normal" stroke-width="1" height="486" font-family="'Dialog'" font-style="normal" stroke-linejoin="miter" font-size="12" stroke-dashoffset="0" image-rendering="auto">
  <!--Generated by ySVG-->
  <defs id="genericDefs"/>
  <g>
    <defs id="defs1">
      <clipPath clipPathUnits="userSpaceOnUse" id="clipPath1">
        <path d="M0 0 L288 0 L288 486 L0 486 L0 0 Z"/>
      </clipPath>
      <clipPath clipPathUnits="userSpaceOnUse" id="clipPath2">
        <path d="M-10 -16 L298 -16 L298 503.75 L-10 503.75 L-10 -16 Z"/>
      </clipPath>
    </defs>
    <g fill="white" transform="scale(0.9351,0.9351) translate(10,16)" stroke="white">
      <rect x="-10" y="-16" clip-path="url(#clipPath2)" width="308" height="520" stroke="none"/>
    </g>
    <g id="y.node.0">
      <g fill="rgb(222,239,234)" transform="matrix(0.9351,0,0,0.9351,9.3506,14.961)" stroke="rgb(222,239,234)">
        <rect width="287.5" x="0" height="363" y="0" stroke="none"/>
      </g>
      <g id="bla">
        <g fill="rgb(64,64,64)" transform="matrix(0.9351,0,0,0.9351,9.3506,14.961)" stroke="rgb(64,64,64)">
          <rect width="287.5" x="0" height="22.625" y="0" stroke="none"/>
        </g>
        <g fill="white" font-size="16" font-family="sans-serif" transform="matrix(0.9351,0,0,0.9351,9.3506,14.961)" stroke="white">
          <text xml:space="preserve" x="190.5" y="16.8516" stroke="none">Start Block  </text>
        </g>
      </g>
      <g fill="white" transform="matrix(0.9351,0,0,0.9351,9.3506,14.961)" stroke="white">
        <rect width="1" x="0" height="363" y="0" stroke="none"/>
        <rect width="285.5" x="1" height="1" y="0" stroke="none"/>
        <rect x="1" y="362" fill="rgb(155,167,163)" width="286.5" height="1" stroke="none"/>
        <rect x="286.5" y="0" fill="rgb(155,167,163)" width="1" height="362" stroke="none"/>
      </g>
    </g>
    <g id="y.node.1">
      <g fill="rgb(255,153,153)" transform="matrix(0.9351,0,0,0.9351,9.3506,14.961)" stroke="rgb(255,153,153)">
        <rect width="64" x="127.5" height="30" y="318" stroke="none"/>
      </g>
      <g id="bla">
        <g font-family="sans-serif" transform="matrix(0.9351,0,0,0.9351,9.3506,14.961)">
          <text xml:space="preserve" x="134.5" y="337.1543" stroke="none">Return  </text>
        </g>
      </g>
      <g stroke-miterlimit="1.45" transform="matrix(0.9351,0,0,0.9351,9.3506,14.961)" stroke-linecap="butt">
        <rect fill="none" width="64" x="127.5" height="30" y="318"/>
      </g>
    </g>
    <g id="y.node.2">
      <g fill="rgb(153,153,255)" transform="matrix(0.9351,0,0,0.9351,9.3506,14.961)" stroke="rgb(153,153,255)">
        <rect width="70" x="202.5" height="30" y="248" stroke="none"/>
      </g>
      <g id="bla">
        <g font-family="sans-serif" transform="matrix(0.9351,0,0,0.9351,9.3506,14.961)">
          <text xml:space="preserve" x="209.5" y="267.1543" stroke="none">Proj M M </text>
        </g>
      </g>
      <g stroke-miterlimit="1.45" transform="matrix(0.9351,0,0,0.9351,9.3506,14.961)" stroke-linecap="butt">
        <rect fill="none" width="70" x="202.5" height="30" y="248"/>
      </g>
    </g>
    <g id="y.node.3">
      <g fill="white" transform="matrix(0.9351,0,0,0.9351,9.3506,14.961)" stroke="white">
        <rect width="56" x="90" height="30" y="248" stroke="none"/>
      </g>
      <g id="bla">
        <g font-family="sans-serif" transform="matrix(0.9351,0,0,0.9351,9.3506,14.961)">
          <text xml:space="preserve" x="97" y="267.1543" stroke="none">Add Is </text>
        </g>
      </g>
      <g stroke-miterlimit="1.45" transform="matrix(0.9351,0,0,0.9351,9.3506,14.961)" stroke-linecap="butt">
        <rect fill="none" width="56" x="90" height="30" y="248"/>
      </g>
    </g>
    <g id="y.node.4">
      <g fill="white" transform="matrix(0.9351,0,0,0.9351,9.3506,14.961)" stroke="white">
        <rect width="93" x="15" height="30" y="178" stroke="none"/>
      </g>
      <g id="bla">
        <g font-family="sans-serif" transform="matrix(0.9351,0,0,0.9351,9.3506,14.961)">
          <text xml:space="preserve" x="22" y="197.1543" stroke="none">Proj Is Arg 0 </text>
        </g>
      </g>
      <g stroke-miterlimit="1.45" transform="matrix(0.9351,0,0,0.9351,9.3506,14.961)" stroke-linecap="butt">
        <rect fill="none" width="93" x="15" height="30" y="178"/>
      </g>
    </g>
    <g id="y.node.5">
      <g fill="white" transform="matrix(0.9351,0,0,0.9351,9.3506,14.961)" stroke="white">
        <rect width="93" x="128" height="30" y="178" stroke="none"/>
      </g>
      <g id="bla">
        <g font-family="sans-serif" transform="matrix(0.9351,0,0,0.9351,9.3506,14.961)">
          <text xml:space="preserve" x="135" y="197.1543" stroke="none">Proj Is Arg 1 </text>
        </g>
      </g>
      <g stroke-miterlimit="1.45" transform="matrix(0.9351,0,0,0.9351,9.3506,14.961)" stroke-linecap="butt">
        <rect fill="none" width="93" x="128" height="30" y="178"/>
      </g>
    </g>
    <g id="y.node.6">
      <g fill="white" transform="matrix(0.9351,0,0,0.9351,9.3506,14.961)" stroke="white">
        <rect width="98" x="69" height="30" y="108" stroke="none"/>
      </g>
      <g id="bla">
        <g font-family="sans-serif" transform="matrix(0.9351,0,0,0.9351,9.3506,14.961)">
          <text xml:space="preserve" x="76" y="127.1543" stroke="none">Proj T T_args </text>
        </g>
      </g>
      <g stroke-miterlimit="1.45" transform="matrix(0.9351,0,0,0.9351,9.3506,14.961)" stroke-linecap="butt">
        <rect fill="none" width="98" x="69" height="30" y="108"/>
      </g>
    </g>
    <g id="y.node.7">
      <g fill="rgb(255,153,255)" transform="matrix(0.9351,0,0,0.9351,9.3506,14.961)" stroke="rgb(255,153,255)">
        <rect width="53" x="138.25" height="30" y="38" stroke="none"/>
      </g>
      <g id="bla">
        <g font-family="sans-serif" transform="matrix(0.9351,0,0,0.9351,9.3506,14.961)">
          <text xml:space="preserve" x="145.25" y="57.1543" stroke="none">Start  </text>
        </g>
      </g>
      <g stroke-miterlimit="1.45" transform="matrix(0.9351,0,0,0.9351,9.3506,14.961)" stroke-linecap="butt">
        <rect fill="none" width="53" x="138.25" height="30" y="38"/>
      </g>
    </g>
    <g id="y.node.8">
      <g fill="rgb(222,239,234)" transform="matrix(0.9351,0,0,0.9351,9.3506,14.961)" stroke="rgb(222,239,234)">
        <rect width="76" x="121.5" height="83" y="403" stroke="none"/>
      </g>
      <g id="bla">
        <g fill="rgb(64,64,64)" transform="matrix(0.9351,0,0,0.9351,9.3506,14.961)" stroke="rgb(64,64,64)">
          <rect width="91" x="114" height="22.625" y="403" stroke="none"/>
        </g>
        <g fill="white" font-size="16" font-family="sans-serif" transform="matrix(0.9351,0,0,0.9351,9.3506,14.961)" stroke="white">
          <text xml:space="preserve" x="116" y="419.8516" stroke="none">End Block  </text>
        </g>
      </g>
      <g fill="white" transform="matrix(0.9351,0,0,0.9351,9.3506,14.961)" stroke="white">
        <rect width="1" x="121.5" height="83" y="403" stroke="none"/>
        <rect width="74" x="122.5" height="1" y="403" stroke="none"/>
        <rect x="122.5" y="485" fill="rgb(155,167,163)" width="75" height="1" stroke="none"/>
        <rect x="196.5" y="403" fill="rgb(155,167,163)" width="1" height="82" stroke="none"/>
      </g>
    </g>
    <g id="y.node.9">
      <g fill="rgb(255,153,255)" transform="matrix(0.9351,0,0,0.9351,9.3506,14.961)" stroke="rgb(255,153,255)">
        <rect width="46" x="136.5" height="30" y="441" stroke="none"/>
      </g>
      <g id="bla">
        <g font-family="sans-serif" transform="matrix(0.9351,0,0,0.9351,9.3506,14.961)">
          <text xml:space="preserve" x="143.5" y="460.1543" stroke="none">End  </text>
        </g>
      </g>
      <g stroke-miterlimit="1.45" transform="matrix(0.9351,0,0,0.9351,9.3506,14.961)" stroke-linecap="butt">
        <rect fill="none" width="46" x="136.5" height="30" y="441"/>
      </g>
    </g>
    <g id="y.edge.0">
      <g fill="rgb(100,100,255)" stroke-miterlimit="1.45" transform="matrix(0.9351,0,0,0.9351,9.3506,14.961)" stroke-linecap="butt" stroke="rgb(100,100,255)">
        <path fill="none" d="M175.5 317.9609 L175.5 298 L237.5 298 L237.5 286"/>
        <path d="M237.5 278 L232.5 290 L237.5 287 L242.5 290 Z" stroke="none"/>
      </g>
      <g>
        <g stroke-miterlimit="1.45" font-family="sans-serif" transform="matrix(0.9351,0,0,0.9351,9.3506,14.961)" stroke-linecap="butt">
          <text xml:space="preserve" x="179.5" y="307.5918" stroke="none">0</text>
        </g>
      </g>
    </g>
    <g id="y.edge.1">
      <g stroke-miterlimit="1.45" transform="matrix(0.9351,0,0,0.9351,9.3506,14.961)" stroke-linecap="butt">
        <path fill="none" d="M143.5 317.9609 L143.5 298 L118 298 L118 286"/>
        <path d="M118 278 L113 290 L118 287 L123 290 Z" stroke="none"/>
      </g>
      <g>
        <g stroke-miterlimit="1.45" font-family="sans-serif" transform="matrix(0.9351,0,0,0.9351,9.3506,14.961)" stroke-linecap="butt">
          <text xml:space="preserve" x="147.5" y="307.5918" stroke="none">1</text>
        </g>
      </g>
    </g>
    <g id="y.edge.2">
      <g fill="rgb(100,100,255)" stroke-miterlimit="1.45" transform="matrix(0.9351,0,0,0.9351,9.3506,14.961)" stroke-linecap="butt" stroke="rgb(100,100,255)">
        <path fill="none" d="M237.5 247.9609 L237.5 88 L178 88 L178 76"/>
        <path d="M178 68 L173 80 L178 77 L183 80 Z" stroke="none"/>
      </g>
      <g>
        <g stroke-miterlimit="1.45" font-family="sans-serif" transform="matrix(0.9351,0,0,0.9351,9.3506,14.961)" stroke-linecap="butt">
          <text xml:space="preserve" x="241.5" y="233.0449" stroke="none">0</text>
        </g>
      </g>
    </g>
    <g id="y.edge.3">
      <g stroke-miterlimit="1.45" transform="matrix(0.9351,0,0,0.9351,9.3506,14.961)" stroke-linecap="butt">
        <path fill="none" d="M104 247.9609 L104 228 L61.5 228 L61.5 216"/>
        <path d="M61.5 208 L56.5 220 L61.5 217 L66.5 220 Z" stroke="none"/>
      </g>
      <g>
        <g stroke-miterlimit="1.45" font-family="sans-serif" transform="matrix(0.9351,0,0,0.9351,9.3506,14.961)" stroke-linecap="butt">
          <text xml:space="preserve" x="108" y="237.5918" stroke="none">0</text>
        </g>
      </g>
    </g>
    <g id="y.edge.4">
      <g stroke-miterlimit="1.45" transform="matrix(0.9351,0,0,0.9351,9.3506,14.961)" stroke-linecap="butt">
        <path fill="none" d="M132 247.9609 L132 228 L174.5 228 L174.5 216"/>
        <path d="M174.5 208 L169.5 220 L174.5 217 L179.5 220 Z" stroke="none"/>
      </g>
      <g>
        <g stroke-miterlimit="1.45" font-family="sans-serif" transform="matrix(0.9351,0,0,0.9351,9.3506,14.961)" stroke-linecap="butt">
          <text xml:space="preserve" x="136" y="237.5918" stroke="none">1</text>
        </g>
      </g>
    </g>
    <g id="y.edge.5">
      <g stroke-miterlimit="1.45" transform="matrix(0.9351,0,0,0.9351,9.3506,14.961)" stroke-linecap="butt">
        <path fill="none" d="M61.5 177.9609 L61.5 158 L93.5 158 L93.5 146"/>
        <path d="M93.5 138 L88.5 150 L93.5 147 L98.5 150 Z" stroke="none"/>
      </g>
      <g>
        <g stroke-miterlimit="1.45" font-family="sans-serif" transform="matrix(0.9351,0,0,0.9351,9.3506,14.961)" stroke-linecap="butt">
          <text xml:space="preserve" x="65.5" y="167.5918" stroke="none">0</text>
        </g>
      </g>
    </g>
    <g id="y.edge.6">
      <g stroke-miterlimit="1.45" transform="matrix(0.9351,0,0,0.9351,9.3506,14.961)" stroke-linecap="butt">
        <path fill="none" d="M174.5 177.9609 L174.5 158 L142.5 158 L142.5 146"/>
        <path d="M142.5 138 L137.5 150 L142.5 147 L147.5 150 Z" stroke="none"/>
      </g>
      <g>
        <g stroke-miterlimit="1.45" font-family="sans-serif" transform="matrix(0.9351,0,0,0.9351,9.3506,14.961)" stroke-linecap="butt">
          <text xml:space="preserve" x="178.5" y="167.5918" stroke="none">0</text>
        </g>
      </g>
    </g>
    <g id="y.edge.7">
      <g stroke-miterlimit="1.45" transform="matrix(0.9351,0,0,0.9351,9.3506,14.961)" stroke-linecap="butt">
        <path fill="none" d="M118 107.9609 L118 88 L151.5 88 L151.5 76"/>
        <path d="M151.5 68 L146.5 80 L151.5 77 L156.5 80 Z" stroke="none"/>
      </g>
      <g>
        <g stroke-miterlimit="1.45" font-family="sans-serif" transform="matrix(0.9351,0,0,0.9351,9.3506,14.961)" stroke-linecap="butt">
          <text xml:space="preserve" x="122" y="97.5918" stroke="none">0</text>
        </g>
      </g>
    </g>
    <g id="y.edge.8">
      <g fill="red" stroke-miterlimit="1.45" transform="matrix(0.9351,0,0,0.9351,9.3506,14.961)" stroke-linecap="butt" stroke="red">
        <path fill="none" d="M159.5 402.9731 L159.5 356"/>
        <path d="M159.5 348 L154.5 360 L159.5 357 L164.5 360 Z" stroke="none"/>
      </g>
      <g>
        <g stroke-miterlimit="1.45" font-family="sans-serif" transform="matrix(0.9351,0,0,0.9351,9.3506,14.961)" stroke-linecap="butt">
          <text xml:space="preserve" x="163.5" y="388.0449" stroke="none">0</text>
        </g>
      </g>
    </g>
  </g>
</svg>
