<?xml version="1.0" encoding="UTF-8"?><svg xmlns="http://www.w3.org/2000/svg" xmlns:xlink="http://www.w3.org/1999/xlink" fill-opacity="1" color-rendering="auto" color-interpolation="auto" text-rendering="auto" stroke="black" stroke-linecap="square" width="396" stroke-miterlimit="10" shape-rendering="auto" stroke-opacity="1" fill="black" stroke-dasharray="none" font-weight="normal" stroke-width="1" height="649" font-family="'Dialog'" font-style="normal" stroke-linejoin="miter" font-size="12" stroke-dashoffset="0" image-rendering="auto">
  <!--Generated by ySVG-->
  <defs id="genericDefs"/>
  <g>
    <defs id="defs1">
      <clipPath clipPathUnits="userSpaceOnUse" id="clipPath1">
        <path d="M0 0 L396 0 L396 649 L0 649 L0 0 Z"/>
      </clipPath>
      <clipPath clipPathUnits="userSpaceOnUse" id="clipPath2">
        <path d="M-10 -16 L406 -16 L406 665.7778 L-10 665.7778 L-10 -16 Z"/>
      </clipPath>
    </defs>
    <g fill="white" transform="scale(0.9519,0.9519) translate(10,16)" stroke="white">
      <rect x="-10" y="-16" clip-path="url(#clipPath2)" width="417" height="682" stroke="none"/>
    </g>
    <g id="y.node.0">
      <g fill="rgb(222,239,234)" transform="matrix(0.9519,0,0,0.9519,9.5192,15.2308)" stroke="rgb(222,239,234)">
        <rect width="238" x="87.0156" height="293" y="0" stroke="none"/>
      </g>
      <g id="bla">
        <g fill="rgb(64,64,64)" transform="matrix(0.9519,0,0,0.9519,9.5192,15.2308)" stroke="rgb(64,64,64)">
          <rect width="238" x="87.0156" height="22.625" y="0" stroke="none"/>
        </g>
        <g fill="white" font-size="16" font-family="sans-serif" transform="matrix(0.9519,0,0,0.9519,9.5192,15.2308)" stroke="white">
          <text xml:space="preserve" x="271.0156" y="16.8516" stroke="none">Block  </text>
        </g>
      </g>
      <g fill="white" transform="matrix(0.9519,0,0,0.9519,9.5192,15.2308)" stroke="white">
        <rect width="1" x="87.0156" height="293" y="0" stroke="none"/>
        <rect width="236" x="88.0156" height="1" y="0" stroke="none"/>
        <rect x="88.0156" y="292" fill="rgb(155,167,163)" width="237" height="1" stroke="none"/>
        <rect x="324.0156" y="0" fill="rgb(155,167,163)" width="1" height="292" stroke="none"/>
      </g>
    </g>
    <g id="y.node.1">
      <g fill="rgb(255,153,153)" transform="matrix(0.9519,0,0,0.9519,9.5192,15.2308)" stroke="rgb(255,153,153)">
        <rect width="83" x="112.0156" height="30" y="248" stroke="none"/>
      </g>
      <g id="bla">
        <g font-family="sans-serif" transform="matrix(0.9519,0,0,0.9519,9.5192,15.2308)">
          <text xml:space="preserve" x="119.0156" y="267.1543" stroke="none">Proj X true </text>
        </g>
      </g>
      <g stroke-miterlimit="1.45" transform="matrix(0.9519,0,0,0.9519,9.5192,15.2308)" stroke-linecap="butt">
        <rect fill="none" width="83" x="112.0156" height="30" y="248"/>
      </g>
    </g>
    <g id="y.node.2">
      <g fill="rgb(255,153,153)" transform="matrix(0.9519,0,0,0.9519,9.5192,15.2308)" stroke="rgb(255,153,153)">
        <rect width="54" x="179.0156" height="30" y="178" stroke="none"/>
      </g>
      <g id="bla">
        <g font-family="sans-serif" transform="matrix(0.9519,0,0,0.9519,9.5192,15.2308)">
          <text xml:space="preserve" x="186.0156" y="197.1543" stroke="none">Cond  </text>
        </g>
      </g>
      <g stroke-miterlimit="1.45" transform="matrix(0.9519,0,0,0.9519,9.5192,15.2308)" stroke-linecap="butt">
        <rect fill="none" width="54" x="179.0156" height="30" y="178"/>
      </g>
    </g>
    <g id="y.node.3">
      <g fill="white" transform="matrix(0.9519,0,0,0.9519,9.5192,15.2308)" stroke="white">
        <rect width="108" x="152.0156" height="30" y="108" stroke="none"/>
      </g>
      <g id="bla">
        <g font-family="sans-serif" transform="matrix(0.9519,0,0,0.9519,9.5192,15.2308)">
          <text xml:space="preserve" x="159.0156" y="127.1543" stroke="none">Cmp b greater </text>
        </g>
      </g>
      <g stroke-miterlimit="1.45" transform="matrix(0.9519,0,0,0.9519,9.5192,15.2308)" stroke-linecap="butt">
        <rect fill="none" width="108" x="152.0156" height="30" y="108"/>
      </g>
    </g>
    <g id="y.node.4">
      <g fill="rgb(255,255,153)" transform="matrix(0.9519,0,0,0.9519,9.5192,15.2308)" stroke="rgb(255,255,153)">
        <rect width="94" x="216.0156" height="30" y="38" stroke="none"/>
      </g>
      <g id="bla">
        <g font-family="sans-serif" transform="matrix(0.9519,0,0,0.9519,9.5192,15.2308)">
          <text xml:space="preserve" x="223.0156" y="57.1543" stroke="none">Const 0x7 Is </text>
        </g>
      </g>
      <g stroke-miterlimit="1.45" transform="matrix(0.9519,0,0,0.9519,9.5192,15.2308)" stroke-linecap="butt">
        <rect fill="none" width="94" x="216.0156" height="30" y="38"/>
      </g>
    </g>
    <g id="y.node.5">
      <g fill="rgb(255,255,153)" transform="matrix(0.9519,0,0,0.9519,9.5192,15.2308)" stroke="rgb(255,255,153)">
        <rect width="94" x="102.0156" height="30" y="38" stroke="none"/>
      </g>
      <g id="bla">
        <g font-family="sans-serif" transform="matrix(0.9519,0,0,0.9519,9.5192,15.2308)">
          <text xml:space="preserve" x="109.0156" y="57.1543" stroke="none">Const 0x4 Is </text>
        </g>
      </g>
      <g stroke-miterlimit="1.45" transform="matrix(0.9519,0,0,0.9519,9.5192,15.2308)" stroke-linecap="butt">
        <rect fill="none" width="94" x="102.0156" height="30" y="38"/>
      </g>
    </g>
    <g id="y.node.6">
      <g fill="rgb(255,153,153)" transform="matrix(0.9519,0,0,0.9519,9.5192,15.2308)" stroke="rgb(255,153,153)">
        <rect width="87" x="215.0156" height="30" y="248" stroke="none"/>
      </g>
      <g id="bla">
        <g font-family="sans-serif" transform="matrix(0.9519,0,0,0.9519,9.5192,15.2308)">
          <text xml:space="preserve" x="222.0156" y="267.1543" stroke="none">Proj X false </text>
        </g>
      </g>
      <g stroke-miterlimit="1.45" transform="matrix(0.9519,0,0,0.9519,9.5192,15.2308)" stroke-linecap="butt">
        <rect fill="none" width="87" x="215.0156" height="30" y="248"/>
      </g>
    </g>
    <g id="y.node.7">
      <g fill="rgb(222,239,234)" transform="matrix(0.9519,0,0,0.9519,9.5192,15.2308)" stroke="rgb(222,239,234)">
        <rect width="188" x="0" height="83" y="333" stroke="none"/>
      </g>
      <g id="bla">
        <g fill="rgb(64,64,64)" transform="matrix(0.9519,0,0,0.9519,9.5192,15.2308)" stroke="rgb(64,64,64)">
          <rect width="188" x="0" height="22.625" y="333" stroke="none"/>
        </g>
        <g fill="white" font-size="16" font-family="sans-serif" transform="matrix(0.9519,0,0,0.9519,9.5192,15.2308)" stroke="white">
          <text xml:space="preserve" x="134" y="349.8516" stroke="none">Block  </text>
        </g>
      </g>
      <g fill="white" transform="matrix(0.9519,0,0,0.9519,9.5192,15.2308)" stroke="white">
        <rect width="1" x="0" height="83" y="333" stroke="none"/>
        <rect width="186" x="1" height="1" y="333" stroke="none"/>
        <rect x="1" y="415" fill="rgb(155,167,163)" width="187" height="1" stroke="none"/>
        <rect x="187" y="333" fill="rgb(155,167,163)" width="1" height="82" stroke="none"/>
      </g>
    </g>
    <g id="y.node.8">
      <g fill="rgb(255,255,153)" transform="matrix(0.9519,0,0,0.9519,9.5192,15.2308)" stroke="rgb(255,255,153)">
        <rect width="94" x="15" height="30" y="371" stroke="none"/>
      </g>
      <g id="bla">
        <g font-family="sans-serif" transform="matrix(0.9519,0,0,0.9519,9.5192,15.2308)">
          <text xml:space="preserve" x="22" y="390.1543" stroke="none">Const 0x9 Is </text>
        </g>
      </g>
      <g stroke-miterlimit="1.45" transform="matrix(0.9519,0,0,0.9519,9.5192,15.2308)" stroke-linecap="butt">
        <rect fill="none" width="94" x="15" height="30" y="371"/>
      </g>
    </g>
    <g id="y.node.9">
      <g fill="rgb(255,153,153)" transform="matrix(0.9519,0,0,0.9519,9.5192,15.2308)" stroke="rgb(255,153,153)">
        <rect width="44" x="129" height="30" y="371" stroke="none"/>
      </g>
      <g id="bla">
        <g font-family="sans-serif" transform="matrix(0.9519,0,0,0.9519,9.5192,15.2308)">
          <text xml:space="preserve" x="136" y="390.1543" stroke="none">Jmp  </text>
        </g>
      </g>
      <g stroke-miterlimit="1.45" transform="matrix(0.9519,0,0,0.9519,9.5192,15.2308)" stroke-linecap="butt">
        <rect fill="none" width="44" x="129" height="30" y="371"/>
      </g>
    </g>
    <g id="y.node.10">
      <g fill="rgb(222,239,234)" transform="matrix(0.9519,0,0,0.9519,9.5192,15.2308)" stroke="rgb(222,239,234)">
        <rect width="188" x="208" height="83" y="333" stroke="none"/>
      </g>
      <g id="bla">
        <g fill="rgb(64,64,64)" transform="matrix(0.9519,0,0,0.9519,9.5192,15.2308)" stroke="rgb(64,64,64)">
          <rect width="188" x="208" height="22.625" y="333" stroke="none"/>
        </g>
        <g fill="white" font-size="16" font-family="sans-serif" transform="matrix(0.9519,0,0,0.9519,9.5192,15.2308)" stroke="white">
          <text xml:space="preserve" x="342" y="349.8516" stroke="none">Block  </text>
        </g>
      </g>
      <g fill="white" transform="matrix(0.9519,0,0,0.9519,9.5192,15.2308)" stroke="white">
        <rect width="1" x="208" height="83" y="333" stroke="none"/>
        <rect width="186" x="209" height="1" y="333" stroke="none"/>
        <rect x="209" y="415" fill="rgb(155,167,163)" width="187" height="1" stroke="none"/>
        <rect x="395" y="333" fill="rgb(155,167,163)" width="1" height="82" stroke="none"/>
      </g>
    </g>
    <g id="y.node.11">
      <g fill="rgb(255,255,153)" transform="matrix(0.9519,0,0,0.9519,9.5192,15.2308)" stroke="rgb(255,255,153)">
        <rect width="94" x="223" height="30" y="371" stroke="none"/>
      </g>
      <g id="bla">
        <g font-family="sans-serif" transform="matrix(0.9519,0,0,0.9519,9.5192,15.2308)">
          <text xml:space="preserve" x="230" y="390.1543" stroke="none">Const 0x3 Is </text>
        </g>
      </g>
      <g stroke-miterlimit="1.45" transform="matrix(0.9519,0,0,0.9519,9.5192,15.2308)" stroke-linecap="butt">
        <rect fill="none" width="94" x="223" height="30" y="371"/>
      </g>
    </g>
    <g id="y.node.12">
      <g fill="rgb(255,153,153)" transform="matrix(0.9519,0,0,0.9519,9.5192,15.2308)" stroke="rgb(255,153,153)">
        <rect width="44" x="337" height="30" y="371" stroke="none"/>
      </g>
      <g id="bla">
        <g font-family="sans-serif" transform="matrix(0.9519,0,0,0.9519,9.5192,15.2308)">
          <text xml:space="preserve" x="344" y="390.1543" stroke="none">Jmp  </text>
        </g>
      </g>
      <g stroke-miterlimit="1.45" transform="matrix(0.9519,0,0,0.9519,9.5192,15.2308)" stroke-linecap="butt">
        <rect fill="none" width="44" x="337" height="30" y="371"/>
      </g>
    </g>
    <g id="y.node.13">
      <g fill="rgb(222,239,234)" transform="matrix(0.9519,0,0,0.9519,9.5192,15.2308)" stroke="rgb(222,239,234)">
        <rect width="131" x="167.5" height="183" y="466" stroke="none"/>
      </g>
      <g id="bla">
        <g fill="rgb(64,64,64)" transform="matrix(0.9519,0,0,0.9519,9.5192,15.2308)" stroke="rgb(64,64,64)">
          <rect width="131" x="167.5" height="22.625" y="466" stroke="none"/>
        </g>
        <g fill="white" font-size="16" font-family="sans-serif" transform="matrix(0.9519,0,0,0.9519,9.5192,15.2308)" stroke="white">
          <text xml:space="preserve" x="244.5" y="482.8516" stroke="none">Block  </text>
        </g>
      </g>
      <g fill="white" transform="matrix(0.9519,0,0,0.9519,9.5192,15.2308)" stroke="white">
        <rect width="1" x="167.5" height="183" y="466" stroke="none"/>
        <rect width="129" x="168.5" height="1" y="466" stroke="none"/>
        <rect x="168.5" y="648" fill="rgb(155,167,163)" width="130" height="1" stroke="none"/>
        <rect x="297.5" y="466" fill="rgb(155,167,163)" width="1" height="182" stroke="none"/>
      </g>
    </g>
    <g id="y.node.14">
      <g fill="rgb(255,255,255)" fill-opacity="0" transform="matrix(0.9519,0,0,0.9519,9.5192,15.2308)" stroke-opacity="0" stroke="rgb(255,255,255)">
        <rect width="30" x="253.5" height="30" y="534" stroke="none"/>
      </g>
      <g id="bla"/>
      <g stroke-linecap="butt" transform="matrix(0.9519,0,0,0.9519,9.5192,15.2308)" fill-opacity="0" fill="rgb(255,255,255)" stroke="rgb(255,255,255)" stroke-opacity="0" stroke-miterlimit="1.45">
        <rect fill="none" width="30" x="253.5" height="30" y="534"/>
      </g>
    </g>
    <g id="y.node.15">
      <g fill="rgb(255,153,153)" transform="matrix(0.9519,0,0,0.9519,9.5192,15.2308)" stroke="rgb(255,153,153)">
        <rect width="64" x="206.25" height="30" y="604" stroke="none"/>
      </g>
      <g id="bla">
        <g font-family="sans-serif" transform="matrix(0.9519,0,0,0.9519,9.5192,15.2308)">
          <text xml:space="preserve" x="213.25" y="623.1543" stroke="none">Return  </text>
        </g>
      </g>
      <g stroke-miterlimit="1.45" transform="matrix(0.9519,0,0,0.9519,9.5192,15.2308)" stroke-linecap="butt">
        <rect fill="none" width="64" x="206.25" height="30" y="604"/>
      </g>
    </g>
    <g id="y.node.16">
      <g fill="rgb(153,255,153)" transform="matrix(0.9519,0,0,0.9519,9.5192,15.2308)" stroke="rgb(153,255,153)">
        <rect width="51" x="182.5" height="30" y="534" stroke="none"/>
      </g>
      <g id="bla">
        <g font-family="sans-serif" transform="matrix(0.9519,0,0,0.9519,9.5192,15.2308)">
          <text xml:space="preserve" x="189.5" y="553.1543" stroke="none">Phi Is </text>
        </g>
      </g>
      <g stroke-miterlimit="1.45" transform="matrix(0.9519,0,0,0.9519,9.5192,15.2308)" stroke-linecap="butt">
        <rect fill="none" width="51" x="182.5" height="30" y="534"/>
      </g>
    </g>
    <g id="y.edge.0">
      <g fill="red" stroke-miterlimit="1.45" transform="matrix(0.9519,0,0,0.9519,9.5192,15.2308)" stroke-linecap="butt" stroke="red">
        <path fill="none" d="M153.5156 247.9609 L153.5156 228 L192.5156 228 L192.5156 216"/>
        <path d="M192.5156 208 L187.5156 220 L192.5156 217 L197.5156 220 Z" stroke="none"/>
      </g>
      <g>
        <g stroke-miterlimit="1.45" font-family="sans-serif" transform="matrix(0.9519,0,0,0.9519,9.5192,15.2308)" stroke-linecap="butt">
          <text xml:space="preserve" x="157.5156" y="237.5918" stroke="none">0</text>
        </g>
      </g>
    </g>
    <g id="y.edge.1">
      <g stroke-miterlimit="1.45" transform="matrix(0.9519,0,0,0.9519,9.5192,15.2308)" stroke-linecap="butt">
        <path fill="none" d="M206.0156 177.9609 L206.0156 146"/>
        <path d="M206.0156 138 L201.0156 150 L206.0156 147 L211.0156 150 Z" stroke="none"/>
      </g>
      <g>
        <g stroke-miterlimit="1.45" font-family="sans-serif" transform="matrix(0.9519,0,0,0.9519,9.5192,15.2308)" stroke-linecap="butt">
          <text xml:space="preserve" x="210.0156" y="163.0449" stroke="none">0</text>
        </g>
      </g>
    </g>
    <g id="y.edge.2">
      <g stroke-miterlimit="1.45" transform="matrix(0.9519,0,0,0.9519,9.5192,15.2308)" stroke-linecap="butt">
        <path fill="none" d="M233.0156 107.9609 L233.0156 88 L263.0156 88 L263.0156 76"/>
        <path d="M263.0156 68 L258.0156 80 L263.0156 77 L268.0156 80 Z" stroke="none"/>
      </g>
      <g>
        <g stroke-miterlimit="1.45" font-family="sans-serif" transform="matrix(0.9519,0,0,0.9519,9.5192,15.2308)" stroke-linecap="butt">
          <text xml:space="preserve" x="237.0156" y="97.5918" stroke="none">0</text>
        </g>
      </g>
    </g>
    <g id="y.edge.3">
      <g stroke-miterlimit="1.45" transform="matrix(0.9519,0,0,0.9519,9.5192,15.2308)" stroke-linecap="butt">
        <path fill="none" d="M179.0156 107.9609 L179.0156 88 L149.0156 88 L149.0156 76"/>
        <path d="M149.0156 68 L144.0156 80 L149.0156 77 L154.0156 80 Z" stroke="none"/>
      </g>
      <g>
        <g stroke-miterlimit="1.45" font-family="sans-serif" transform="matrix(0.9519,0,0,0.9519,9.5192,15.2308)" stroke-linecap="butt">
          <text xml:space="preserve" x="183.0156" y="97.5918" stroke="none">1</text>
        </g>
      </g>
    </g>
    <g id="y.edge.4">
      <g fill="red" stroke-miterlimit="1.45" transform="matrix(0.9519,0,0,0.9519,9.5192,15.2308)" stroke-linecap="butt" stroke="red">
        <path fill="none" d="M258.5156 247.9609 L258.5156 228 L219.5156 228 L219.5156 216"/>
        <path d="M219.5156 208 L214.5156 220 L219.5156 217 L224.5156 220 Z" stroke="none"/>
      </g>
      <g>
        <g stroke-miterlimit="1.45" font-family="sans-serif" transform="matrix(0.9519,0,0,0.9519,9.5192,15.2308)" stroke-linecap="butt">
          <text xml:space="preserve" x="262.5156" y="237.5918" stroke="none">0</text>
        </g>
      </g>
    </g>
    <g id="y.edge.5">
      <g fill="red" stroke-miterlimit="1.45" transform="matrix(0.9519,0,0,0.9519,9.5192,15.2308)" stroke-linecap="butt" stroke="red">
        <path fill="none" d="M94 332.9609 L94 313 L153.5156 313 L153.5156 286"/>
        <path d="M153.5156 278 L148.5156 290 L153.5156 287 L158.5156 290 Z" stroke="none"/>
      </g>
      <g>
        <g stroke-miterlimit="1.45" font-family="sans-serif" transform="matrix(0.9519,0,0,0.9519,9.5192,15.2308)" stroke-linecap="butt">
          <text xml:space="preserve" x="98" y="322.5918" stroke="none">0</text>
        </g>
      </g>
    </g>
    <g id="y.edge.6">
      <g fill="red" stroke-miterlimit="1.45" transform="matrix(0.9519,0,0,0.9519,9.5192,15.2308)" stroke-linecap="butt" stroke="red">
        <path fill="none" d="M302 332.9609 L302 313 L258.5156 313 L258.5156 286"/>
        <path d="M258.5156 278 L253.5156 290 L258.5156 287 L263.5156 290 Z" stroke="none"/>
      </g>
      <g>
        <g stroke-miterlimit="1.45" font-family="sans-serif" transform="matrix(0.9519,0,0,0.9519,9.5192,15.2308)" stroke-linecap="butt">
          <text xml:space="preserve" x="306" y="322.5918" stroke="none">0</text>
        </g>
      </g>
    </g>
    <g id="y.edge.7">
      <g fill="rgb(100,100,255)" stroke-miterlimit="1.45" transform="matrix(0.9519,0,0,0.9519,9.5192,15.2308)" stroke-linecap="butt" stroke="rgb(100,100,255)">
        <path fill="none" d="M254.25 603.9609 L254.25 584 L268.5 584 L268.5 572"/>
        <path d="M268.5 564 L263.5 576 L268.5 573 L273.5 576 Z" stroke="none"/>
      </g>
      <g>
        <g stroke-miterlimit="1.45" font-family="sans-serif" transform="matrix(0.9519,0,0,0.9519,9.5192,15.2308)" stroke-linecap="butt">
          <text xml:space="preserve" x="258.25" y="593.5918" stroke="none">0</text>
        </g>
      </g>
    </g>
    <g id="y.edge.8">
      <g stroke-miterlimit="1.45" transform="matrix(0.9519,0,0,0.9519,9.5192,15.2308)" stroke-linecap="butt">
        <path fill="none" d="M222.25 603.9609 L222.25 584 L208 584 L208 572"/>
        <path d="M208 564 L203 576 L208 573 L213 576 Z" stroke="none"/>
      </g>
      <g>
        <g stroke-miterlimit="1.45" font-family="sans-serif" transform="matrix(0.9519,0,0,0.9519,9.5192,15.2308)" stroke-linecap="butt">
          <text xml:space="preserve" x="226.25" y="593.5918" stroke="none">1</text>
        </g>
      </g>
    </g>
    <g id="y.edge.9">
      <g stroke-miterlimit="1.45" transform="matrix(0.9519,0,0,0.9519,9.5192,15.2308)" stroke-linecap="butt">
        <path fill="none" d="M195.25 533.9609 L195.25 514 L203 514 L203 446 L62 446 L62 409"/>
        <path d="M62 401 L57 413 L62 410 L67 413 Z" stroke="none"/>
      </g>
      <g>
        <g stroke-miterlimit="1.45" font-family="sans-serif" transform="matrix(0.9519,0,0,0.9519,9.5192,15.2308)" stroke-linecap="butt">
          <text xml:space="preserve" x="199.25" y="523.5918" stroke="none">0</text>
        </g>
      </g>
    </g>
    <g id="y.edge.10">
      <g stroke-miterlimit="1.45" transform="matrix(0.9519,0,0,0.9519,9.5192,15.2308)" stroke-linecap="butt">
        <path fill="none" d="M220.75 533.9609 L220.75 514 L213 514 L213 436 L270 436 L270 409"/>
        <path d="M270 401 L265 413 L270 410 L275 413 Z" stroke="none"/>
      </g>
      <g>
        <g stroke-miterlimit="1.45" font-family="sans-serif" transform="matrix(0.9519,0,0,0.9519,9.5192,15.2308)" stroke-linecap="butt">
          <text xml:space="preserve" x="224.75" y="523.5918" stroke="none">1</text>
        </g>
      </g>
    </g>
    <g id="y.edge.11">
      <g fill="red" stroke-miterlimit="1.45" transform="matrix(0.9519,0,0,0.9519,9.5192,15.2308)" stroke-linecap="butt" stroke="red">
        <path fill="none" d="M208 465.9707 L208 436 L151 436 L151 409"/>
        <path d="M151 401 L146 413 L151 410 L156 413 Z" stroke="none"/>
      </g>
      <g>
        <g stroke-miterlimit="1.45" font-family="sans-serif" transform="matrix(0.9519,0,0,0.9519,9.5192,15.2308)" stroke-linecap="butt">
          <text xml:space="preserve" x="212" y="451.0449" stroke="none">0</text>
        </g>
      </g>
    </g>
    <g id="y.edge.12">
      <g fill="red" stroke-miterlimit="1.45" transform="matrix(0.9519,0,0,0.9519,9.5192,15.2308)" stroke-linecap="butt" stroke="red">
        <path fill="none" d="M282.125 465.9707 L282.125 436 L359 436 L359 409"/>
        <path d="M359 401 L354 413 L359 410 L364 413 Z" stroke="none"/>
      </g>
      <g>
        <g stroke-miterlimit="1.45" font-family="sans-serif" transform="matrix(0.9519,0,0,0.9519,9.5192,15.2308)" stroke-linecap="butt">
          <text xml:space="preserve" x="286.125" y="451.0449" stroke="none">1</text>
        </g>
      </g>
    </g>
  </g>
</svg>
