<?xml version="1.0" encoding="UTF-8"?><svg xmlns="http://www.w3.org/2000/svg" xmlns:xlink="http://www.w3.org/1999/xlink" fill-opacity="1" color-rendering="auto" color-interpolation="auto" text-rendering="auto" stroke="black" stroke-linecap="square" width="208" stroke-miterlimit="10" shape-rendering="auto" stroke-opacity="1" fill="black" stroke-dasharray="none" font-weight="normal" stroke-width="1" height="100" font-family="'Dialog'" font-style="normal" stroke-linejoin="miter" font-size="12" stroke-dashoffset="0" image-rendering="auto">
  <!--Generated by ySVG-->
  <defs id="genericDefs"/>
  <g>
    <defs id="defs1">
      <clipPath clipPathUnits="userSpaceOnUse" id="clipPath1">
        <path d="M0 0 L208 0 L208 100 L0 100 L0 0 Z"/>
      </clipPath>
      <clipPath clipPathUnits="userSpaceOnUse" id="clipPath2">
        <path d="M-20 -10 L229.6 -10 L229.6 110 L-20 110 L-20 -10 Z"/>
      </clipPath>
    </defs>
    <g fill="white" transform="scale(0.8333,0.8333) translate(20,10)" stroke="white">
      <rect x="-20" y="-10" clip-path="url(#clipPath2)" width="250" height="120" stroke="none"/>
    </g>
    <g id="y.node.0">
      <g fill="white" transform="matrix(0.8333,0,0,0.8333,16.6667,8.3333)" stroke="white">
        <rect width="56" x="76" height="30" y="70" stroke="none"/>
      </g>
      <g id="bla">
        <g font-family="sans-serif" transform="matrix(0.8333,0,0,0.8333,16.6667,8.3333)">
          <text xml:space="preserve" x="83" y="89.1543" stroke="none">Add Is </text>
        </g>
      </g>
      <g stroke-miterlimit="1.45" transform="matrix(0.8333,0,0,0.8333,16.6667,8.3333)" stroke-linecap="butt">
        <rect fill="none" width="56" x="76" height="30" y="70"/>
      </g>
    </g>
    <g id="y.node.1">
      <g fill="rgb(255,255,153)" transform="matrix(0.8333,0,0,0.8333,16.6667,8.3333)" stroke="rgb(255,255,153)">
        <rect width="94" x="0" height="30" y="0" stroke="none"/>
      </g>
      <g id="bla">
        <g font-family="sans-serif" transform="matrix(0.8333,0,0,0.8333,16.6667,8.3333)">
          <text xml:space="preserve" x="7" y="19.1543" stroke="none">Const 0x5 Is </text>
        </g>
      </g>
      <g stroke-miterlimit="1.45" transform="matrix(0.8333,0,0,0.8333,16.6667,8.3333)" stroke-linecap="butt">
        <rect fill="none" width="94" x="0" height="30" y="0"/>
      </g>
    </g>
    <g id="y.node.2">
      <g fill="rgb(255,255,153)" transform="matrix(0.8333,0,0,0.8333,16.6667,8.3333)" stroke="rgb(255,255,153)">
        <rect width="94" x="114" height="30" y="0" stroke="none"/>
      </g>
      <g id="bla">
        <g font-family="sans-serif" transform="matrix(0.8333,0,0,0.8333,16.6667,8.3333)">
          <text xml:space="preserve" x="121" y="19.1543" stroke="none">Const 0x3 Is </text>
        </g>
      </g>
      <g stroke-miterlimit="1.45" transform="matrix(0.8333,0,0,0.8333,16.6667,8.3333)" stroke-linecap="butt">
        <rect fill="none" width="94" x="114" height="30" y="0"/>
      </g>
    </g>
    <g id="y.edge.0">
      <g stroke-miterlimit="1.45" transform="matrix(0.8333,0,0,0.8333,16.6667,8.3333)" stroke-linecap="butt">
        <path fill="none" d="M90 69.9609 L90 50 L47 50 L47 38"/>
      </g>
      <g stroke-miterlimit="1.45" transform="matrix(0.8333,0,0,0.8333,16.6667,8.3333)" stroke-linecap="butt">
        <path d="M47 30 L42 42 L47 39 L52 42 Z" stroke="none"/>
      </g>
      <g>
        <g stroke-miterlimit="1.45" font-family="sans-serif" transform="matrix(0.8333,0,0,0.8333,16.6667,8.3333)" stroke-linecap="butt">
          <text xml:space="preserve" x="94" y="59.5918" stroke="none">0</text>
        </g>
      </g>
    </g>
    <g id="y.edge.1">
      <g stroke-miterlimit="1.45" transform="matrix(0.8333,0,0,0.8333,16.6667,8.3333)" stroke-linecap="butt">
        <path fill="none" d="M118 69.9609 L118 50 L161 50 L161 38"/>
        <path d="M161 30 L156 42 L161 39 L166 42 Z" stroke="none"/>
      </g>
      <g>
        <g stroke-miterlimit="1.45" font-family="sans-serif" transform="matrix(0.8333,0,0,0.8333,16.6667,8.3333)" stroke-linecap="butt">
          <text xml:space="preserve" x="122" y="59.5918" stroke="none">1</text>
        </g>
      </g>
    </g>
  </g>
</svg>
