<?xml version="1.0" encoding="UTF-8"?><svg xmlns="http://www.w3.org/2000/svg" xmlns:xlink="http://www.w3.org/1999/xlink" fill-opacity="1" color-rendering="auto" color-interpolation="auto" text-rendering="auto" stroke="black" stroke-linecap="square" width="100" stroke-miterlimit="10" shape-rendering="auto" stroke-opacity="1" fill="black" stroke-dasharray="none" font-weight="normal" stroke-width="1" height="346" font-family="'Dialog'" font-style="normal" stroke-linejoin="miter" font-size="12" stroke-dashoffset="0" image-rendering="auto">
  <!--Generated by ySVG-->
  <defs id="genericDefs"/>
  <g>
    <defs id="defs1">
      <clipPath clipPathUnits="userSpaceOnUse" id="clipPath1">
        <path d="M0 0 L100 0 L100 346 L0 346 L0 0 Z"/>
      </clipPath>
      <clipPath clipPathUnits="userSpaceOnUse" id="clipPath2">
        <path d="M-10 -34 L110 -34 L110 381.2 L-10 381.2 L-10 -34 Z"/>
      </clipPath>
    </defs>
    <g fill="white" transform="scale(0.8333,0.8333) translate(10,34)" stroke="white">
      <rect x="-10" y="-34" clip-path="url(#clipPath2)" width="120" height="416" stroke="none"/>
    </g>
    <g id="y.node.0">
      <g fill="rgb(222,239,234)" transform="matrix(0.8333,0,0,0.8333,8.3333,28.3333)" stroke="rgb(222,239,234)">
        <rect width="100" x="0" height="223" y="0" stroke="none"/>
      </g>
      <g id="bla">
        <g fill="rgb(64,64,64)" transform="matrix(0.8333,0,0,0.8333,8.3333,28.3333)" stroke="rgb(64,64,64)">
          <rect width="100" x="0" height="22.625" y="0" stroke="none"/>
        </g>
        <g fill="white" font-size="16" font-family="sans-serif" transform="matrix(0.8333,0,0,0.8333,8.3333,28.3333)" stroke="white">
          <text xml:space="preserve" x="3" y="16.8516" stroke="none">Start Block  </text>
        </g>
      </g>
      <g fill="white" transform="matrix(0.8333,0,0,0.8333,8.3333,28.3333)" stroke="white">
        <rect width="1" x="0" height="223" y="0" stroke="none"/>
        <rect width="98" x="1" height="1" y="0" stroke="none"/>
        <rect x="1" y="222" fill="rgb(155,167,163)" width="99" height="1" stroke="none"/>
        <rect x="99" y="0" fill="rgb(155,167,163)" width="1" height="222" stroke="none"/>
      </g>
    </g>
    <g id="y.node.1">
      <g fill="rgb(255,153,153)" transform="matrix(0.8333,0,0,0.8333,8.3333,28.3333)" stroke="rgb(255,153,153)">
        <rect width="64" x="18" height="30" y="178" stroke="none"/>
      </g>
      <g id="bla">
        <g font-family="sans-serif" transform="matrix(0.8333,0,0,0.8333,8.3333,28.3333)">
          <text xml:space="preserve" x="25" y="197.1543" stroke="none">Return  </text>
        </g>
      </g>
      <g stroke-miterlimit="1.45" transform="matrix(0.8333,0,0,0.8333,8.3333,28.3333)" stroke-linecap="butt">
        <rect fill="none" width="64" x="18" height="30" y="178"/>
      </g>
    </g>
    <g id="y.node.2">
      <g fill="rgb(153,153,255)" transform="matrix(0.8333,0,0,0.8333,8.3333,28.3333)" stroke="rgb(153,153,255)">
        <rect width="70" x="15" height="30" y="108" stroke="none"/>
      </g>
      <g id="bla">
        <g font-family="sans-serif" transform="matrix(0.8333,0,0,0.8333,8.3333,28.3333)">
          <text xml:space="preserve" x="22" y="127.1543" stroke="none">Proj M M </text>
        </g>
      </g>
      <g stroke-miterlimit="1.45" transform="matrix(0.8333,0,0,0.8333,8.3333,28.3333)" stroke-linecap="butt">
        <rect fill="none" width="70" x="15" height="30" y="108"/>
      </g>
    </g>
    <g id="y.node.3">
      <g fill="rgb(255,153,255)" transform="matrix(0.8333,0,0,0.8333,8.3333,28.3333)" stroke="rgb(255,153,255)">
        <rect width="53" x="23.5" height="30" y="38" stroke="none"/>
      </g>
      <g id="bla">
        <g font-family="sans-serif" transform="matrix(0.8333,0,0,0.8333,8.3333,28.3333)">
          <text xml:space="preserve" x="30.5" y="57.1543" stroke="none">Start  </text>
        </g>
      </g>
      <g stroke-miterlimit="1.45" transform="matrix(0.8333,0,0,0.8333,8.3333,28.3333)" stroke-linecap="butt">
        <rect fill="none" width="53" x="23.5" height="30" y="38"/>
      </g>
    </g>
    <g id="y.node.4">
      <g fill="rgb(222,239,234)" transform="matrix(0.8333,0,0,0.8333,8.3333,28.3333)" stroke="rgb(222,239,234)">
        <rect width="76" x="12" height="83" y="263" stroke="none"/>
      </g>
      <g id="bla">
        <g fill="rgb(64,64,64)" transform="matrix(0.8333,0,0,0.8333,8.3333,28.3333)" stroke="rgb(64,64,64)">
          <rect width="91" x="4.5" height="22.625" y="263" stroke="none"/>
        </g>
        <g fill="white" font-size="16" font-family="sans-serif" transform="matrix(0.8333,0,0,0.8333,8.3333,28.3333)" stroke="white">
          <text xml:space="preserve" x="6.5" y="279.8516" stroke="none">End Block  </text>
        </g>
      </g>
      <g fill="white" transform="matrix(0.8333,0,0,0.8333,8.3333,28.3333)" stroke="white">
        <rect width="1" x="12" height="83" y="263" stroke="none"/>
        <rect width="74" x="13" height="1" y="263" stroke="none"/>
        <rect x="13" y="345" fill="rgb(155,167,163)" width="75" height="1" stroke="none"/>
        <rect x="87" y="263" fill="rgb(155,167,163)" width="1" height="82" stroke="none"/>
      </g>
    </g>
    <g id="y.node.5">
      <g fill="rgb(255,153,255)" transform="matrix(0.8333,0,0,0.8333,8.3333,28.3333)" stroke="rgb(255,153,255)">
        <rect width="46" x="27" height="30" y="301" stroke="none"/>
      </g>
      <g id="bla">
        <g font-family="sans-serif" transform="matrix(0.8333,0,0,0.8333,8.3333,28.3333)">
          <text xml:space="preserve" x="34" y="320.1543" stroke="none">End  </text>
        </g>
      </g>
      <g stroke-miterlimit="1.45" transform="matrix(0.8333,0,0,0.8333,8.3333,28.3333)" stroke-linecap="butt">
        <rect fill="none" width="46" x="27" height="30" y="301"/>
      </g>
    </g>
    <g id="y.edge.0">
      <g fill="rgb(100,100,255)" stroke-miterlimit="1.45" transform="matrix(0.8333,0,0,0.8333,8.3333,28.3333)" stroke-linecap="butt" stroke="rgb(100,100,255)">
        <path fill="none" d="M50 177.9609 L50 146"/>
        <path d="M50 138 L45 150 L50 147 L55 150 Z" stroke="none"/>
      </g>
      <g>
        <g stroke-miterlimit="1.45" font-family="sans-serif" transform="matrix(0.8333,0,0,0.8333,8.3333,28.3333)" stroke-linecap="butt">
          <text xml:space="preserve" x="54" y="163.0449" stroke="none">0</text>
        </g>
      </g>
    </g>
    <g id="y.edge.1">
      <g fill="rgb(100,100,255)" stroke-miterlimit="1.45" transform="matrix(0.8333,0,0,0.8333,8.3333,28.3333)" stroke-linecap="butt" stroke="rgb(100,100,255)">
        <path fill="none" d="M50 107.9609 L50 76"/>
        <path d="M50 68 L45 80 L50 77 L55 80 Z" stroke="none"/>
      </g>
      <g>
        <g stroke-miterlimit="1.45" font-family="sans-serif" transform="matrix(0.8333,0,0,0.8333,8.3333,28.3333)" stroke-linecap="butt">
          <text xml:space="preserve" x="54" y="93.0449" stroke="none">0</text>
        </g>
      </g>
    </g>
    <g id="y.edge.2">
      <g fill="red" stroke-miterlimit="1.45" transform="matrix(0.8333,0,0,0.8333,8.3333,28.3333)" stroke-linecap="butt" stroke="red">
        <path fill="none" d="M50 262.9731 L50 216"/>
        <path d="M50 208 L45 220 L50 217 L55 220 Z" stroke="none"/>
      </g>
      <g>
        <g stroke-miterlimit="1.45" font-family="sans-serif" transform="matrix(0.8333,0,0,0.8333,8.3333,28.3333)" stroke-linecap="butt">
          <text xml:space="preserve" x="54" y="248.0449" stroke="none">0</text>
        </g>
      </g>
    </g>
  </g>
</svg>
