<?xml version="1.0" encoding="UTF-8"?><svg xmlns="http://www.w3.org/2000/svg" xmlns:xlink="http://www.w3.org/1999/xlink" fill-opacity="1" color-rendering="auto" color-interpolation="auto" text-rendering="auto" stroke="black" stroke-linecap="square" width="325" stroke-miterlimit="10" shape-rendering="auto" stroke-opacity="1" fill="black" stroke-dasharray="none" font-weight="normal" stroke-width="1" height="310" font-family="'Dialog'" font-style="normal" stroke-linejoin="miter" font-size="12" stroke-dashoffset="0" image-rendering="auto">
  <!--Generated by ySVG-->
  <defs id="genericDefs"/>
  <g>
    <defs id="defs1">
      <clipPath clipPathUnits="userSpaceOnUse" id="clipPath1">
        <path d="M0 0 L325 0 L325 310 L0 310 L0 0 Z"/>
      </clipPath>
      <clipPath clipPathUnits="userSpaceOnUse" id="clipPath2">
        <path d="M-10 -10 L335.9677 -10 L335.9677 320 L-10 320 L-10 -10 Z"/>
      </clipPath>
    </defs>
    <g fill="white" transform="scale(0.9394,0.9394) translate(10,10)" stroke="white">
      <rect x="-10" y="-10" clip-path="url(#clipPath2)" width="346" height="330" stroke="none"/>
    </g>
    <g id="y.node.0">
      <g fill="rgb(255,255,255)" fill-opacity="0" transform="matrix(0.9394,0,0,0.9394,9.3939,9.3939)" stroke-opacity="0" stroke="rgb(255,255,255)">
        <rect width="30" x="114" height="30" y="0" stroke="none"/>
      </g>
      <g id="bla"/>
      <g stroke-linecap="butt" transform="matrix(0.9394,0,0,0.9394,9.3939,9.3939)" fill-opacity="0" fill="rgb(255,255,255)" stroke="rgb(255,255,255)" stroke-opacity="0" stroke-miterlimit="1.45">
        <rect fill="none" width="30" x="114" height="30" y="0"/>
      </g>
    </g>
    <g id="y.node.1">
      <g fill="rgb(153,153,255)" transform="matrix(0.9394,0,0,0.9394,9.3939,9.3939)" stroke="rgb(153,153,255)">
        <rect width="70" x="196" height="30" y="280" stroke="none"/>
      </g>
      <g id="bla">
        <g font-family="sans-serif" transform="matrix(0.9394,0,0,0.9394,9.3939,9.3939)">
          <text xml:space="preserve" x="203" y="299.1543" stroke="none">Proj M M </text>
        </g>
      </g>
      <g stroke-miterlimit="1.45" transform="matrix(0.9394,0,0,0.9394,9.3939,9.3939)" stroke-linecap="butt">
        <rect fill="none" width="70" x="196" height="30" y="280"/>
      </g>
    </g>
    <g id="y.node.2">
      <g fill="rgb(153,153,255)" transform="matrix(0.9394,0,0,0.9394,9.3939,9.3939)" stroke="rgb(153,153,255)">
        <rect width="44" x="209" height="30" y="210" stroke="none"/>
      </g>
      <g id="bla">
        <g font-family="sans-serif" transform="matrix(0.9394,0,0,0.9394,9.3939,9.3939)">
          <text xml:space="preserve" x="216" y="229.1543" stroke="none">Call  </text>
        </g>
      </g>
      <g stroke-miterlimit="1.45" transform="matrix(0.9394,0,0,0.9394,9.3939,9.3939)" stroke-linecap="butt">
        <rect fill="none" width="44" x="209" height="30" y="210"/>
      </g>
    </g>
    <g id="y.node.3">
      <g fill="rgb(153,153,255)" transform="matrix(0.9394,0,0,0.9394,9.3939,9.3939)" stroke="rgb(153,153,255)">
        <rect width="70" x="89.7167" height="30" y="140" stroke="none"/>
      </g>
      <g id="bla">
        <g font-family="sans-serif" transform="matrix(0.9394,0,0,0.9394,9.3939,9.3939)">
          <text xml:space="preserve" x="96.7167" y="159.1543" stroke="none">Proj M M </text>
        </g>
      </g>
      <g stroke-miterlimit="1.45" transform="matrix(0.9394,0,0,0.9394,9.3939,9.3939)" stroke-linecap="butt">
        <rect fill="none" width="70" x="89.7167" height="30" y="140"/>
      </g>
    </g>
    <g id="y.node.4">
      <g fill="rgb(153,153,255)" transform="matrix(0.9394,0,0,0.9394,9.3939,9.3939)" stroke="rgb(153,153,255)">
        <rect width="44" x="102.7167" height="30" y="70" stroke="none"/>
      </g>
      <g id="bla">
        <g font-family="sans-serif" transform="matrix(0.9394,0,0,0.9394,9.3939,9.3939)">
          <text xml:space="preserve" x="109.7167" y="89.1543" stroke="none">Call  </text>
        </g>
      </g>
      <g stroke-miterlimit="1.45" transform="matrix(0.9394,0,0,0.9394,9.3939,9.3939)" stroke-linecap="butt">
        <rect fill="none" width="44" x="102.7167" height="30" y="70"/>
      </g>
    </g>
    <g id="y.node.5">
      <g fill="rgb(255,255,153)" transform="matrix(0.9394,0,0,0.9394,9.3939,9.3939)" stroke="rgb(255,255,153)">
        <rect width="146" x="179" height="30" y="0" stroke="none"/>
      </g>
      <g id="bla">
        <g font-family="sans-serif" transform="matrix(0.9394,0,0,0.9394,9.3939,9.3939)">
          <text xml:space="preserve" x="186" y="19.1543" stroke="none">Address &amp;print_int P </text>
        </g>
      </g>
      <g stroke-miterlimit="1.45" transform="matrix(0.9394,0,0,0.9394,9.3939,9.3939)" stroke-linecap="butt">
        <rect fill="none" width="146" x="179" height="30" y="0"/>
      </g>
    </g>
    <g id="y.node.6">
      <g fill="rgb(255,255,153)" transform="matrix(0.9394,0,0,0.9394,9.3939,9.3939)" stroke="rgb(255,255,153)">
        <rect width="94" x="0" height="30" y="0" stroke="none"/>
      </g>
      <g id="bla">
        <g font-family="sans-serif" transform="matrix(0.9394,0,0,0.9394,9.3939,9.3939)">
          <text xml:space="preserve" x="7" y="19.1543" stroke="none">Const 0x7 Is </text>
        </g>
      </g>
      <g stroke-miterlimit="1.45" transform="matrix(0.9394,0,0,0.9394,9.3939,9.3939)" stroke-linecap="butt">
        <rect fill="none" width="94" x="0" height="30" y="0"/>
      </g>
    </g>
    <g id="y.node.7">
      <g fill="rgb(255,255,153)" transform="matrix(0.9394,0,0,0.9394,9.3939,9.3939)" stroke="rgb(255,255,153)">
        <rect width="94" x="179.7167" height="30" y="140" stroke="none"/>
      </g>
      <g id="bla">
        <g font-family="sans-serif" transform="matrix(0.9394,0,0,0.9394,9.3939,9.3939)">
          <text xml:space="preserve" x="186.7167" y="159.1543" stroke="none">Const 0x4 Is </text>
        </g>
      </g>
      <g stroke-miterlimit="1.45" transform="matrix(0.9394,0,0,0.9394,9.3939,9.3939)" stroke-linecap="butt">
        <rect fill="none" width="94" x="179.7167" height="30" y="140"/>
      </g>
    </g>
    <g id="y.edge.0">
      <g fill="rgb(100,100,255)" stroke-miterlimit="1.45" transform="matrix(0.9394,0,0,0.9394,9.3939,9.3939)" stroke-linecap="butt" stroke="rgb(100,100,255)">
        <path fill="none" d="M231 279.9609 L231 248"/>
      </g>
      <g fill="rgb(100,100,255)" stroke-miterlimit="1.45" transform="matrix(0.9394,0,0,0.9394,9.3939,9.3939)" stroke-linecap="butt" stroke="rgb(100,100,255)">
        <path d="M231 240 L226 252 L231 249 L236 252 Z" stroke="none"/>
      </g>
      <g>
        <g stroke-miterlimit="1.45" font-family="sans-serif" transform="matrix(0.9394,0,0,0.9394,9.3939,9.3939)" stroke-linecap="butt">
          <text xml:space="preserve" x="235" y="265.0449" stroke="none">0</text>
        </g>
      </g>
    </g>
    <g id="y.edge.1">
      <g fill="rgb(100,100,255)" stroke-miterlimit="1.45" transform="matrix(0.9394,0,0,0.9394,9.3939,9.3939)" stroke-linecap="butt" stroke="rgb(100,100,255)">
        <path fill="none" d="M216.3333 209.9609 L216.3333 190 L124.7167 190 L124.7167 178"/>
        <path d="M124.7167 170 L119.7167 182 L124.7167 179 L129.7167 182 Z" stroke="none"/>
      </g>
      <g>
        <g stroke-miterlimit="1.45" font-family="sans-serif" transform="matrix(0.9394,0,0,0.9394,9.3939,9.3939)" stroke-linecap="butt">
          <text xml:space="preserve" x="220.3333" y="199.5918" stroke="none">0</text>
        </g>
      </g>
    </g>
    <g id="y.edge.2">
      <g stroke-miterlimit="1.45" transform="matrix(0.9394,0,0,0.9394,9.3939,9.3939)" stroke-linecap="butt">
        <path fill="none" d="M245.6667 209.9609 L245.6667 190 L288.5 190 L288.5 38"/>
        <path d="M288.5 30 L283.5 42 L288.5 39 L293.5 42 Z" stroke="none"/>
      </g>
      <g>
        <g stroke-miterlimit="1.45" font-family="sans-serif" transform="matrix(0.9394,0,0,0.9394,9.3939,9.3939)" stroke-linecap="butt">
          <text xml:space="preserve" x="249.6667" y="199.5918" stroke="none">1</text>
        </g>
      </g>
    </g>
    <g id="y.edge.3">
      <g stroke-miterlimit="1.45" transform="matrix(0.9394,0,0,0.9394,9.3939,9.3939)" stroke-linecap="butt">
        <path fill="none" d="M231 209.9609 L231 190 L226.7167 190 L226.7167 178"/>
        <path d="M226.7167 170 L221.7167 182 L226.7167 179 L231.7167 182 Z" stroke="none"/>
      </g>
      <g>
        <g stroke-miterlimit="1.45" font-family="sans-serif" transform="matrix(0.9394,0,0,0.9394,9.3939,9.3939)" stroke-linecap="butt">
          <text xml:space="preserve" x="235" y="199.5918" stroke="none">2</text>
        </g>
      </g>
    </g>
    <g id="y.edge.4">
      <g fill="rgb(100,100,255)" stroke-miterlimit="1.45" transform="matrix(0.9394,0,0,0.9394,9.3939,9.3939)" stroke-linecap="butt" stroke="rgb(100,100,255)">
        <path fill="none" d="M124.7167 139.9609 L124.7167 108"/>
        <path d="M124.7167 100 L119.7167 112 L124.7167 109 L129.7167 112 Z" stroke="none"/>
      </g>
      <g>
        <g stroke-miterlimit="1.45" font-family="sans-serif" transform="matrix(0.9394,0,0,0.9394,9.3939,9.3939)" stroke-linecap="butt">
          <text xml:space="preserve" x="128.7167" y="125.0449" stroke="none">0</text>
        </g>
      </g>
    </g>
    <g id="y.edge.5">
      <g fill="rgb(100,100,255)" stroke-miterlimit="1.45" transform="matrix(0.9394,0,0,0.9394,9.3939,9.3939)" stroke-linecap="butt" stroke="rgb(100,100,255)">
        <path fill="none" d="M124.7167 69.9609 L124.7167 50 L129 50 L129 38"/>
        <path d="M129 30 L124 42 L129 39 L134 42 Z" stroke="none"/>
      </g>
      <g>
        <g stroke-miterlimit="1.45" font-family="sans-serif" transform="matrix(0.9394,0,0,0.9394,9.3939,9.3939)" stroke-linecap="butt">
          <text xml:space="preserve" x="128.7167" y="59.5918" stroke="none">0</text>
        </g>
      </g>
    </g>
    <g id="y.edge.6">
      <g stroke-miterlimit="1.45" transform="matrix(0.9394,0,0,0.9394,9.3939,9.3939)" stroke-linecap="butt">
        <path fill="none" d="M139.3833 69.9609 L139.3833 50 L215.5 50 L215.5 38"/>
        <path d="M215.5 30 L210.5 42 L215.5 39 L220.5 42 Z" stroke="none"/>
      </g>
      <g>
        <g stroke-miterlimit="1.45" font-family="sans-serif" transform="matrix(0.9394,0,0,0.9394,9.3939,9.3939)" stroke-linecap="butt">
          <text xml:space="preserve" x="143.3833" y="59.5918" stroke="none">1</text>
        </g>
      </g>
    </g>
    <g id="y.edge.7">
      <g stroke-miterlimit="1.45" transform="matrix(0.9394,0,0,0.9394,9.3939,9.3939)" stroke-linecap="butt">
        <path fill="none" d="M110.05 69.9609 L110.05 50 L47 50 L47 38"/>
        <path d="M47 30 L42 42 L47 39 L52 42 Z" stroke="none"/>
      </g>
      <g>
        <g stroke-miterlimit="1.45" font-family="sans-serif" transform="matrix(0.9394,0,0,0.9394,9.3939,9.3939)" stroke-linecap="butt">
          <text xml:space="preserve" x="114.05" y="59.5918" stroke="none">2</text>
        </g>
      </g>
    </g>
  </g>
</svg>
